<svg width="304" height="353" viewBox="0 0 304 353" fill="none" xmlns="http://www.w3.org/2000/svg">
<path fill-rule="evenodd" clip-rule="evenodd" d="M258.358 321.176C285.503 302.782 302 277.581 302 250C302 222.419 285.503 197.218 258.358 178.824C231.225 160.437 193.627 149 152 149C110.373 149 72.7754 160.437 45.6417 178.824C18.4969 197.218 2 222.419 2 250C2 277.581 18.4969 302.782 45.6417 321.176C72.7754 339.563 110.373 351 152 351C193.627 351 231.225 339.563 258.358 321.176ZM152 353C235.947 353 304 306.885 304 250C304 193.115 235.947 147 152 147C68.0527 147 0 193.115 0 250C0 306.885 68.0527 353 152 353Z" fill="#37474F"/>
<path d="M114.495 249.819C116.37 249.478 161.736 223.402 162.885 221.232C163.324 220.419 160.179 213.104 156.141 204.35C155.264 202.464 154.357 200.521 153.419 198.554C147.37 185.776 140.656 172.373 140.656 172.373L110.284 189.727L123.894 215.428L126.873 221.078C126.873 221.078 113.664 239.415 112.643 241.935C111.622 244.455 112.628 250.161 114.495 249.819Z" fill="#F7A9A0"/>
<path d="M114.495 249.819C116.371 249.478 161.736 223.402 162.885 221.232C163.415 220.224 158.659 209.625 153.419 198.554L123.894 215.428L126.873 221.078C126.873 221.078 113.664 239.415 112.643 241.935C111.622 244.455 112.628 250.161 114.495 249.819Z" fill="white"/>
<path d="M114.495 249.819C116.371 249.478 161.736 223.402 162.885 221.232C163.324 220.419 160.179 213.104 156.141 204.349L126.842 221.078C126.842 221.078 113.633 239.415 112.613 241.935C111.592 244.455 112.628 250.161 114.495 249.819Z" fill="#FFB347"/>
<path d="M114.178 247.495C121.686 242.927 152.353 225.239 160.095 221.338C160.156 221.338 160.179 221.338 160.095 221.386C152.754 226.093 121.95 243.504 114.223 247.633C114.064 247.714 114.019 247.592 114.178 247.495Z" fill="#263238"/>
<path d="M114.647 238.505C115.48 237.994 116.403 237.676 117.357 237.57C118.311 237.463 119.276 237.571 120.189 237.887C121.839 238.435 123.226 239.65 124.06 241.276C124.06 241.325 123.999 241.374 123.969 241.325C122.906 239.855 121.427 238.795 119.756 238.305C118.084 237.816 116.31 237.923 114.7 238.61C114.639 238.635 114.586 238.545 114.647 238.505Z" fill="#263238"/>
<path d="M124.294 223.581C127.319 221.785 131.417 220.915 134.638 222.5C134.766 222.565 134.683 222.752 134.57 222.76C131.161 222.791 127.764 223.21 124.438 224.012C124.385 224.032 124.326 224.029 124.275 224.003C124.224 223.977 124.185 223.931 124.166 223.874C124.147 223.817 124.15 223.754 124.174 223.699C124.198 223.644 124.241 223.602 124.294 223.581Z" fill="#263238"/>
<path d="M122.434 225.922C125.459 224.126 129.557 223.248 132.778 224.841C132.906 224.898 132.823 225.093 132.71 225.093C129.3 225.122 125.904 225.544 122.578 226.353C122.525 226.373 122.466 226.37 122.415 226.344C122.364 226.318 122.325 226.272 122.306 226.215C122.287 226.158 122.29 226.095 122.314 226.04C122.338 225.985 122.381 225.943 122.434 225.922Z" fill="#263238"/>
<path d="M120.574 228.255C123.599 226.459 127.697 225.589 130.918 227.174C131.046 227.239 130.963 227.426 130.85 227.426C127.44 227.455 124.044 227.877 120.718 228.686C120.665 228.706 120.606 228.703 120.555 228.677C120.504 228.651 120.465 228.605 120.446 228.547C120.427 228.49 120.43 228.427 120.454 228.373C120.478 228.318 120.521 228.275 120.574 228.255Z" fill="#263238"/>
<path d="M118.714 230.588C121.739 228.791 125.837 227.922 129.058 229.507C129.186 229.572 129.103 229.759 128.99 229.767C125.58 229.796 122.184 230.218 118.858 231.027C118.807 231.036 118.754 231.026 118.709 230.998C118.664 230.97 118.63 230.926 118.613 230.873C118.595 230.82 118.596 230.762 118.615 230.71C118.633 230.658 118.669 230.615 118.714 230.588Z" fill="#263238"/>
<path d="M154.296 214.705C157.714 212.754 160.541 218.468 157.116 220.395C153.691 222.321 150.871 216.64 154.296 214.705Z" fill="#263238"/>
<path d="M119.289 221.403C122.064 222.736 125.277 222.728 128.249 223.093C128.315 223.097 128.381 223.082 128.442 223.052C128.502 223.022 128.555 222.977 128.596 222.921C128.636 222.864 128.664 222.798 128.676 222.727C128.688 222.657 128.684 222.585 128.665 222.516C128.718 222.516 128.755 222.435 128.71 222.37C126.996 219.495 124.607 217.156 121.784 215.591C120.128 214.713 117.52 214.486 116.658 216.745C115.796 219.005 117.671 220.622 119.289 221.403ZM117.777 218.769C116.31 215.038 120.658 216.054 121.852 216.753C122.623 217.221 123.363 217.745 124.068 218.322C125.542 219.493 126.835 220.866 128.196 222.183C126.744 221.907 125.285 221.768 123.833 221.549C122.117 221.289 118.601 220.826 117.8 218.769H117.777Z" fill="#263238"/>
<path d="M138.486 214.063C137.186 212.063 134.706 212.909 133.247 214.16C130.818 216.361 128.97 219.209 127.886 222.419C127.881 222.433 127.879 222.447 127.881 222.462C127.882 222.477 127.887 222.491 127.894 222.504C127.902 222.516 127.911 222.527 127.923 222.534C127.935 222.542 127.948 222.547 127.961 222.549C127.958 222.62 127.971 222.692 127.998 222.757C128.025 222.823 128.066 222.88 128.117 222.926C128.168 222.972 128.229 223.004 128.294 223.02C128.358 223.037 128.426 223.037 128.491 223.02C131.311 221.955 134.449 221.191 136.876 219.232C138.297 218.086 139.711 215.957 138.486 214.063ZM132.437 220.468C131.061 221.029 129.67 221.508 128.309 222.094C129.36 220.468 130.343 218.842 131.545 217.347C132.112 216.618 132.723 215.931 133.375 215.29C134.403 214.323 138.433 212.299 137.768 216.29C137.428 218.517 134.093 219.801 132.46 220.468H132.437Z" fill="#263238"/>
<path d="M131.492 143.176C132.211 152.694 152.625 194.384 152.625 194.384L120.491 211.706C120.491 211.706 95.714 164.748 97.0523 143.615C98.194 125.684 127.069 103.087 144.83 81.0265H168.768C161.207 106.037 133.504 133.649 131.568 142.078C131.496 142.464 131.481 142.859 131.523 143.249L131.492 143.176Z" fill="#37474F"/>
<path d="M120.431 204.78C125.723 201.748 124.143 202.545 129.436 199.578C132.029 198.123 145.034 190.8 147.658 189.873C147.671 189.869 147.685 189.87 147.698 189.877C147.711 189.883 147.721 189.893 147.727 189.907C147.733 189.92 147.735 189.935 147.732 189.95C147.729 189.964 147.721 189.977 147.711 189.987C145.442 191.726 132.324 198.757 129.716 200.155C124.37 203.016 125.875 202.139 120.506 204.935C120.497 204.943 120.486 204.95 120.474 204.953C120.462 204.956 120.449 204.957 120.437 204.954C120.424 204.952 120.413 204.946 120.403 204.938C120.393 204.93 120.385 204.92 120.379 204.908C120.373 204.896 120.37 204.883 120.369 204.87C120.369 204.856 120.371 204.843 120.376 204.831C120.381 204.819 120.389 204.808 120.398 204.799C120.408 204.79 120.419 204.784 120.431 204.78Z" fill="#263238"/>
<path d="M165.925 84.9119C158.33 98.7255 149.734 111.874 140.218 124.237C137.889 127.244 135.485 130.17 133.073 133.105C131.031 135.543 128.967 138.331 128.581 141.729C128.143 145.517 129.678 149.199 130.91 152.645C132.271 156.449 133.647 160.245 135.084 164.025C136.641 168.089 138.267 172.153 140.082 176.063C141.004 178.079 141.972 180.07 142.985 182.037C143.489 183.018 144.011 183.993 144.55 184.963C144.815 185.451 146.69 188.776 146.962 189.263C147.053 189.418 147.28 189.605 147.053 189.198C146.539 188.288 144.444 184.516 143.96 183.59C142.055 179.932 140.354 176.169 138.743 172.348C137.133 168.528 135.598 164.561 134.139 160.619C132.679 156.677 131.19 152.808 129.942 148.866C129.212 146.848 128.853 144.698 128.884 142.534C129.038 140.444 129.726 138.442 130.872 136.746C132.929 133.495 135.681 130.666 138.055 127.667C142.97 121.441 147.64 115.003 152.066 108.354C157.098 100.833 161.761 93.0358 166.038 84.9931C166.053 84.9037 165.963 84.855 165.925 84.9119Z" fill="#263238"/>
<path d="M138.66 300.052C140.497 300.556 191.806 296.549 193.673 295.07C194.384 294.509 194.278 286.446 193.893 276.7C193.81 274.594 193.711 272.424 193.598 270.197C192.895 255.875 191.836 240.699 191.836 240.699L157.51 243.276L160.216 272.701L160.806 279.163C160.806 279.163 141.798 290.136 139.915 292.005C138.033 293.875 136.823 299.516 138.66 300.052Z" fill="#F7A9A0"/>
<path d="M138.66 300.052C140.497 300.556 191.806 296.549 193.673 295.07C194.535 294.387 194.203 282.617 193.598 270.213L160.186 272.684L160.776 279.146C160.776 279.146 141.768 290.12 139.885 291.989C138.002 293.859 136.823 299.516 138.66 300.052Z" fill="white"/>
<path d="M138.66 300.052C140.497 300.556 191.806 296.549 193.673 295.07C194.384 294.509 194.278 286.446 193.893 276.7L160.806 279.138C160.806 279.138 141.798 290.111 139.915 291.981C138.033 293.851 136.823 299.516 138.66 300.052Z" fill="#FFB347"/>
<path d="M132.132 155.837C140.714 154.942 175.426 152.187 183.978 152C184.046 152 184.046 152.049 183.978 152.057C175.487 153.146 140.759 155.601 132.14 155.991C131.958 155.999 131.951 155.853 132.132 155.837Z" fill="#263238"/>
<path d="M143.076 289.746C144.029 289.644 144.992 289.756 145.903 290.075C146.814 290.394 147.654 290.913 148.368 291.599C149.671 292.821 150.483 294.536 150.637 296.387C150.637 296.443 150.546 296.452 150.538 296.387C150.115 294.585 149.161 292.978 147.819 291.806C146.476 290.635 144.818 289.96 143.091 289.884C143.074 289.886 143.057 289.881 143.043 289.869C143.03 289.858 143.021 289.841 143.019 289.823C143.017 289.805 143.022 289.786 143.033 289.772C143.043 289.757 143.059 289.748 143.076 289.746Z" fill="#263238"/>
<path d="M157.532 280.325C160.972 280.008 165.048 281 167.361 283.861C167.452 283.966 167.308 284.105 167.203 284.056C164.077 282.6 160.814 281.51 157.472 280.805C157.413 280.796 157.359 280.762 157.323 280.711C157.287 280.66 157.271 280.596 157.279 280.532C157.287 280.469 157.318 280.411 157.366 280.372C157.413 280.333 157.473 280.316 157.532 280.325Z" fill="#263238"/>
<path d="M154.946 281.642C158.387 281.325 162.469 282.316 164.813 285.178C164.904 285.291 164.753 285.43 164.647 285.381C161.522 283.93 158.263 282.84 154.924 282.129C154.864 282.126 154.807 282.097 154.767 282.049C154.726 282.001 154.705 281.938 154.708 281.873C154.711 281.809 154.738 281.748 154.783 281.705C154.827 281.661 154.886 281.639 154.946 281.642Z" fill="#263238"/>
<path d="M152.368 282.983C155.808 282.666 159.884 283.658 162.197 286.519C162.288 286.624 162.144 286.763 162.039 286.714C158.913 285.258 155.65 284.168 152.308 283.463C152.248 283.454 152.195 283.42 152.159 283.369C152.123 283.318 152.107 283.254 152.115 283.19C152.123 283.127 152.154 283.069 152.202 283.03C152.249 282.991 152.309 282.974 152.368 282.983Z" fill="#263238"/>
<path d="M149.782 284.292C153.222 283.966 157.305 284.966 159.649 287.819C159.74 287.933 159.589 288.071 159.483 288.023C156.356 286.571 153.094 285.481 149.752 284.771C149.723 284.769 149.694 284.761 149.668 284.747C149.642 284.733 149.618 284.713 149.599 284.689C149.579 284.666 149.565 284.638 149.555 284.608C149.546 284.578 149.542 284.547 149.544 284.515C149.546 284.484 149.554 284.453 149.567 284.425C149.58 284.396 149.598 284.371 149.62 284.35C149.642 284.33 149.668 284.314 149.696 284.304C149.724 284.294 149.753 284.289 149.782 284.292Z" fill="#263238"/>
<path d="M180.704 283.01C184.567 282.717 184.991 289.171 181.12 289.464C177.248 289.756 176.833 283.294 180.704 283.01Z" fill="#263238"/>
<path d="M153.782 276.139C155.816 278.577 158.757 279.975 161.343 281.609C161.403 281.639 161.47 281.653 161.536 281.651C161.602 281.649 161.668 281.63 161.726 281.596C161.785 281.562 161.835 281.514 161.874 281.456C161.912 281.397 161.937 281.33 161.948 281.26C161.962 281.261 161.976 281.259 161.989 281.254C162.002 281.249 162.014 281.24 162.023 281.229C162.033 281.218 162.04 281.205 162.044 281.19C162.048 281.176 162.049 281.161 162.046 281.146C161.558 277.771 160.255 274.592 158.266 271.928C157.079 270.4 154.78 269.051 153.147 270.742C151.514 272.432 152.625 274.725 153.782 276.139ZM153.419 273.091C153.487 269.027 157.079 271.863 157.91 273.026C158.432 273.791 158.907 274.592 159.332 275.424C160.239 277.139 160.904 278.968 161.645 280.756C160.428 279.878 159.15 279.13 157.865 278.277C156.406 277.293 153.381 275.326 153.419 273.091Z" fill="#263238"/>
<path d="M174.098 277.83C173.66 275.391 171.074 275.115 169.274 275.627C166.224 276.579 163.458 278.372 161.252 280.829C161.241 280.838 161.232 280.85 161.226 280.863C161.22 280.877 161.217 280.891 161.217 280.906C161.217 280.921 161.22 280.936 161.226 280.949C161.232 280.963 161.241 280.974 161.252 280.983C161.221 281.047 161.205 281.117 161.204 281.189C161.204 281.26 161.219 281.331 161.248 281.395C161.278 281.459 161.321 281.515 161.374 281.558C161.427 281.601 161.489 281.629 161.555 281.642C164.534 281.902 167.687 282.577 170.628 281.853C172.405 281.422 174.506 280.097 174.098 277.83ZM166.167 281.081C164.7 280.983 163.248 280.821 161.774 280.788C163.347 279.78 164.866 278.699 166.522 277.862C167.317 277.446 168.135 277.085 168.972 276.781C170.28 276.35 174.726 276.253 172.609 279.61C171.444 281.43 167.921 281.154 166.167 281.048V281.081Z" fill="#263238"/>
<path d="M156.209 269.108L195.42 266.669C195.42 266.669 179.716 119.547 182.362 113.995C188.358 101.404 188.903 95.9176 182.302 81.0021H152.444C152.444 81.0021 154.13 96.706 154.016 97.3807C146.576 141.615 156.209 269.108 156.209 269.108Z" fill="#37474F"/>
<path d="M157.736 261.687C165.517 260.671 189.901 259.248 192.517 259.533C192.533 259.533 192.548 259.54 192.559 259.552C192.571 259.564 192.577 259.581 192.577 259.598C192.577 259.615 192.571 259.632 192.559 259.644C192.548 259.656 192.533 259.663 192.517 259.663C189.969 260.313 177.145 261.288 157.736 261.857C157.719 261.852 157.705 261.84 157.694 261.825C157.684 261.81 157.678 261.791 157.678 261.772C157.678 261.753 157.684 261.734 157.694 261.719C157.705 261.704 157.719 261.692 157.736 261.687Z" fill="#263238"/>
<path d="M151.37 82.6928C151.846 86.8058 151.998 93.8693 154.228 93.8693C156.459 93.8693 155.695 85.2614 155.672 83.3024C155.672 81.5061 156.232 81.6768 156.428 83.8389C156.844 89.5856 156.927 94.6659 154.069 94.5683C151.211 94.4708 150.856 85.554 150.841 83.5138C150.788 82.4327 151.219 81.4004 151.37 82.6928Z" fill="#263238"/>
<path d="M154.092 94.1456C154.291 95.5906 154.327 97.0563 154.198 98.5105C154.16 98.6243 153.729 98.5593 153.684 98.4618C153.389 97.8765 153.48 95.0397 153.374 94.2838C153.357 94.1814 153.378 94.0759 153.433 93.9906C153.489 93.9052 153.573 93.8469 153.669 93.8286C153.764 93.8103 153.862 93.8334 153.941 93.8928C154.021 93.9523 154.075 94.0432 154.092 94.1456Z" fill="#263238"/>
<path d="M153.381 99.2827C152.625 102.949 151.914 109.906 152.224 111.719C152.224 111.882 152.482 111.922 152.504 111.719C152.723 109.768 153.669 100.339 153.767 99.3965C153.865 98.4536 153.593 98.2586 153.381 99.2827Z" fill="#263238"/>
<path d="M159.332 101.843C158.869 101.399 158.376 100.991 157.857 100.624C157.343 100.226 156.829 99.8111 156.292 99.4778C155.211 98.73 154.084 98.0554 152.95 97.397C151.816 96.7386 150.682 96.1858 149.548 95.6331C148.414 95.0804 147.068 94.6252 145.866 94.0481C145.79 94.0481 145.737 94.1213 145.805 94.1619C146.955 94.7715 148.021 95.5518 149.14 96.2265C150.259 96.9011 151.408 97.6002 152.497 98.2748C153.585 98.9495 154.682 99.6241 155.786 100.274C156.36 100.616 156.943 100.949 157.525 101.274C158.055 101.608 158.606 101.904 159.173 102.16C159.339 102.225 159.43 101.965 159.332 101.843Z" fill="#263238"/>
<path d="M187.473 239.96C186.727 234.14 186.022 228.315 185.356 222.484C184.026 210.828 182.864 199.147 181.871 187.443C180.878 175.738 180.049 164.028 179.383 152.312C179.051 146.443 178.758 140.577 178.506 134.714C178.257 128.894 177.886 121.115 177.924 115.287C177.924 112.329 182.68 109.809 183.3 101.144C183.767 96.2136 183.187 91.2335 181.606 86.5781C181.217 85.4445 180.765 84.3371 180.253 83.2618C180.215 83.1886 180.117 83.2618 180.155 83.3268C182.309 88.0638 183.348 93.2975 183.179 98.5674C183.162 101.217 182.769 103.848 182.015 106.371C180.858 109.898 177.78 112.873 177.69 114.735C177.561 117.498 177.622 119.888 177.69 122.652C177.758 125.415 177.879 128.398 177.985 131.276C178.216 137.144 178.484 143.008 178.786 148.866C179.406 160.532 180.192 172.183 181.145 183.817C182.098 195.452 183.222 207.102 184.517 218.769C185.808 230.376 187.269 241.959 188.903 253.518C189.092 254.851 189.296 256.168 189.538 257.484C189.538 257.623 189.787 257.582 189.772 257.436C189.152 251.567 188.214 245.771 187.473 239.96Z" fill="#263238"/>
<path d="M144.739 1.4583C139.348 5.09979 136.46 12.5453 136.46 12.5453C136.46 12.5453 130.593 19.3406 130.887 23.86C130.948 25.139 131.296 26.3831 131.902 27.4859C132.508 28.5886 133.353 29.5171 134.365 30.1919L134.441 27.7534C134.441 27.7534 135.197 31.1104 139.734 33.4433C144.27 35.7761 150.795 35.7517 154.425 34.7682C156.573 34.1956 158.547 33.0365 160.156 31.4031L158.22 34.5162C159.801 34.7062 161.401 34.4724 162.878 33.8355C164.354 33.1987 165.661 32.1787 166.681 30.8666C170.507 26.2741 164.254 16.8208 163.929 15.0407C163.604 13.2606 165.244 1.22257 153.222 0.40974C153.192 0.450382 148.452 -1.05336 144.739 1.4583Z" fill="#263238"/>
<path d="M132.755 29.4848C131.593 28.3742 130.775 26.9076 130.411 25.2824C129.972 23.674 130.06 21.9524 130.661 20.4054C131.48 18.6286 132.592 17.0259 133.942 15.6747C135.243 14.1954 136.649 12.8217 137.927 11.318C137.995 11.2367 137.881 11.1229 137.798 11.1879C136.496 12.2369 135.252 13.366 134.071 14.5693C132.888 15.6424 131.827 16.862 130.91 18.2027C130.063 19.4372 129.562 20.9067 129.466 22.4375C129.439 23.6968 129.699 24.9441 130.222 26.0709C130.892 27.3371 131.713 28.5039 132.664 29.5417C132.725 29.6392 132.816 29.5335 132.755 29.4848Z" fill="#263238"/>
<path d="M168.76 25.7213C168.284 21.0232 165.214 17.3654 163.793 13.0249C163.037 10.6758 162.568 8.1479 161.381 6.00202C161.381 5.94512 161.252 6.00202 161.282 6.05892C162.228 7.98533 162.568 10.1231 163.112 12.1714C163.71 14.2441 164.503 16.2458 165.479 18.1457C167.157 21.6734 169.176 25.8433 167.747 29.8587C167.104 31.7119 165.607 33.5814 163.657 33.7359C163.581 33.7359 163.596 33.8741 163.657 33.8578C164.443 33.7239 165.195 33.4183 165.868 32.9598C166.54 32.5012 167.118 31.8995 167.566 31.1917C168.566 29.5836 168.99 27.6401 168.76 25.7213Z" fill="#263238"/>
<path d="M168.685 26.9406C169.157 25.3186 169.157 23.5799 168.685 21.9579C168.098 20.3937 167.203 18.9849 166.061 17.8287C164.829 16.4388 163.505 15.0895 162.931 13.22C162.931 13.1387 162.802 13.22 162.825 13.2687C163.717 16.3331 166.227 18.2758 167.634 21.0069C169.237 24.1363 168.443 27.9404 166.333 30.5658C165.013 32.1544 163.363 33.3854 161.517 34.1585C161.479 34.1585 161.517 34.2236 161.517 34.2073C164.655 32.9393 167.694 30.5496 168.685 26.9406Z" fill="#263238"/>
<path d="M152.958 50.1958C151.446 58.9256 144.459 87.643 136.929 91.2276C131.984 93.5767 110.662 96.0233 106.042 91.5039C104.031 89.5287 103.593 72.8088 106.503 72.8088C109.414 72.8088 126.631 71.5082 128.566 70.4109C130.502 69.3136 142.274 46.7981 147.136 40.7832C155.506 30.4195 153.752 45.4895 152.958 50.1958Z" fill="#F7A9A0"/>
<path d="M112.605 70.2565L116.801 94.6415C116.801 94.6415 133.995 94.2269 140.52 89.7157C148.436 84.2453 154.568 52.1384 155.234 46.9526C156.315 38.4422 154.478 33.9472 150.697 36.15C149.223 36.9629 147.469 38.8567 145.48 41.913C143.492 44.9693 131.87 65.2169 127.803 69.5493C125.512 71.9147 112.605 70.2565 112.605 70.2565Z" fill="#455A64"/>
<path d="M112.605 70.2483L116.809 94.6333C116.809 94.6333 119.66 94.5683 123.478 94.1781C129.043 93.6173 136.656 92.3818 140.52 89.7076C148.436 84.2372 154.576 52.1303 155.234 46.9444C155.99 40.7913 155.234 36.7271 153.351 35.7924C152.913 35.621 152.444 35.5634 151.981 35.6241C151.519 35.6848 151.076 35.8623 150.69 36.1419C149.23 36.9547 147.469 38.8486 145.48 41.8967C143.401 45.083 131.87 65.2088 127.803 69.533C125.512 71.9228 112.605 70.2483 112.605 70.2483Z" fill="#EBEBEB"/>
<path d="M120.809 93.1865C120.287 89.5694 117.656 74.8327 116.885 71.687C116.832 71.4676 116.688 71.4513 116.718 71.687C118.034 82.579 119.992 89.6832 120.673 93.2027C120.675 93.2221 120.684 93.2399 120.698 93.2521C120.712 93.2643 120.73 93.2699 120.748 93.2678C120.766 93.2656 120.783 93.2558 120.794 93.2406C120.806 93.2253 120.811 93.2059 120.809 93.1865Z" fill="#263238"/>
<path d="M155.234 46.9363C154.576 52.1222 148.429 84.2291 140.52 89.6994C138.569 91.0487 135.651 92.0323 132.528 92.7557L151.204 35.8574C151.535 35.6799 151.898 35.5801 152.268 35.5647C152.639 35.5493 153.008 35.6186 153.351 35.768C155.264 36.6946 156.02 40.7588 155.234 46.9363Z" fill="#263238"/>
<path d="M185.508 83.9933C184.064 84.7948 182.574 85.4953 181.047 86.0905L180.291 86.3587C176.038 87.8674 171.62 88.7719 167.15 89.0492C153.797 90.0083 141.443 86.3018 140.467 84.3835L142.614 70.0614L142.728 69.2486L143.015 67.3059C143.015 67.3059 139.991 62.5996 140.059 57.3812C140.081 56.8178 140.162 56.2588 140.301 55.7149C140.346 55.471 140.414 55.2272 140.49 54.959C141.669 50.7972 145.11 44.7335 147.998 40.5556C148.933 39.1483 149.97 37.822 151.098 36.5889C154.311 33.3376 157.706 32.7686 160.972 33.9391C162.464 34.5022 163.859 35.3261 165.101 36.3776C168.136 39.0303 170.667 42.2868 172.556 45.969C174.748 50.0332 176.986 55.9262 178.975 61.8599C179.051 62.0712 179.111 62.2744 179.179 62.4858C182.793 73.2721 185.508 83.9933 185.508 83.9933Z" fill="#EBEBEB"/>
<path d="M146.123 43.5143C145.231 45.1399 144.248 46.6518 143.318 48.2206C143.696 47.107 144.074 45.9934 144.474 44.8961C144.474 44.8961 144.474 44.8554 144.474 44.8961C143.816 46.2173 143.281 47.606 142.879 49.0415C142.181 50.2271 141.56 51.4628 141.019 52.7399C140.345 54.2768 139.921 55.9262 139.764 57.6169C139.667 59.3112 139.891 61.0091 140.422 62.6077C141.048 64.4424 141.83 66.211 142.758 67.8911C142.872 68.1187 143.166 67.8911 143.068 67.6879C141.76 64.6886 140.316 61.5348 140.444 58.1371C140.573 54.7395 142.032 51.6345 143.469 48.7652C144.295 46.9858 145.23 45.267 146.266 43.6199C146.274 43.5143 146.168 43.4411 146.123 43.5143Z" fill="#263238"/>
<path d="M159.491 35.7192C159.317 36.532 155.612 42.1568 151.998 42.0268C150.818 41.9861 150.75 35.0608 150.75 35.0608L150.637 34.5487L149.049 27.4039L156.806 21.8767L157.933 21.1451C157.933 21.1451 158.243 23.1365 158.613 25.6076C158.613 25.7214 158.613 25.8352 158.666 25.9652C158.719 26.0953 158.712 26.2334 158.727 26.3635C158.787 26.7293 158.848 27.1113 158.901 27.4852C158.954 27.8591 158.984 28.0542 159.014 28.3549C159.044 28.6557 159.082 28.9564 159.128 29.2572C159.384 31.4 159.505 33.5589 159.491 35.7192Z" fill="#F7A9A0"/>
<path d="M158.613 25.6076C157.967 27.631 156.919 29.479 155.541 31.023C154.164 32.5671 152.49 33.7702 150.637 34.5487L149.049 27.4039L156.806 21.8767L157.933 21.1451C157.933 21.1451 158.243 23.1365 158.613 25.6076Z" fill="#263238"/>
<path d="M139.325 15.439C137.526 28.1761 144.422 30.7772 146.977 31.1917C149.298 31.5737 157.245 32.5329 160.262 20.064C163.279 7.59518 158.334 2.65316 153.071 1.4908C147.809 0.328453 141.125 2.69379 139.325 15.439Z" fill="#F7A9A0"/>
<path d="M141.322 14.6343C141.609 14.6343 141.866 14.5612 142.146 14.5205C142.439 14.5223 142.726 14.4226 142.962 14.236C143.019 14.1554 143.05 14.0569 143.05 13.9556C143.05 13.8543 143.019 13.7558 142.962 13.6752C142.839 13.5231 142.68 13.4096 142.501 13.3467C142.323 13.2838 142.132 13.2737 141.949 13.3175C141.564 13.3477 141.201 13.5266 140.928 13.8215C140.87 13.8966 140.833 13.9887 140.823 14.0862C140.813 14.1836 140.83 14.2821 140.872 14.3691C140.914 14.4561 140.98 14.5277 141.06 14.5749C141.14 14.6222 141.231 14.6428 141.322 14.6343Z" fill="#263238"/>
<path d="M149.601 14.9351C149.332 14.8672 149.067 14.7831 148.807 14.6831C148.519 14.6351 148.253 14.4866 148.051 14.2604C147.999 14.175 147.975 14.0733 147.983 13.9716C147.991 13.8698 148.031 13.774 148.096 13.6996C148.243 13.5726 148.418 13.4898 148.604 13.4598C148.79 13.4298 148.98 13.4536 149.155 13.5289C149.531 13.6191 149.861 13.8605 150.077 14.2035C150.127 14.2838 150.153 14.3783 150.152 14.4748C150.151 14.5712 150.122 14.665 150.071 14.7439C150.02 14.8229 149.947 14.8834 149.863 14.9175C149.779 14.9516 149.688 14.9577 149.601 14.9351Z" fill="#263238"/>
<path d="M147.658 17.2516C147.658 17.2516 147.718 17.3004 147.718 17.3411C147.605 18.2108 147.612 19.2268 148.323 19.6007V19.6495C147.423 19.4138 147.423 18.0645 147.658 17.2516Z" fill="#263238"/>
<path d="M148.474 16.4226C149.79 16.4226 149.616 19.2919 148.399 19.2593C147.181 19.2268 147.37 16.3738 148.474 16.4226Z" fill="#263238"/>
<path d="M148.981 16.6095C149.2 16.7883 149.412 17.089 149.684 17.1378C149.956 17.1866 150.266 16.9102 150.493 16.642C150.493 16.642 150.538 16.642 150.531 16.642C150.531 17.1866 150.281 17.7312 149.737 17.7718C149.192 17.8125 148.913 17.3085 148.822 16.7558C148.799 16.6826 148.89 16.5363 148.981 16.6095Z" fill="#263238"/>
<path d="M142.887 16.5932C142.887 16.5932 142.819 16.5932 142.819 16.6664C142.819 17.5442 142.637 18.5522 141.881 18.796V18.8448C142.796 18.7635 142.993 17.4304 142.887 16.5932Z" fill="#263238"/>
<path d="M142.206 15.6341C140.898 15.4471 140.649 18.2677 141.858 18.4465C143.068 18.6253 143.303 15.7966 142.206 15.6341Z" fill="#263238"/>
<path d="M141.639 15.7642C141.42 15.8942 141.193 16.1462 140.943 16.1381C140.694 16.1299 140.467 15.7967 140.316 15.4878H140.271C140.21 16.0243 140.324 16.6014 140.792 16.7558C141.261 16.9102 141.548 16.4713 141.76 15.943C141.79 15.8698 141.73 15.7154 141.639 15.7642Z" fill="#263238"/>
<path d="M146.962 24.7297C146.765 24.9329 146.561 25.2093 146.266 25.2337C145.962 25.2166 145.664 25.1337 145.389 24.9898C145.389 24.9898 145.344 24.9898 145.389 25.0386C145.502 25.2142 145.658 25.3533 145.839 25.4407C146.02 25.5281 146.221 25.5605 146.418 25.5344C146.585 25.4921 146.737 25.3966 146.853 25.2603C146.969 25.124 147.044 24.9532 147.068 24.7704C147.053 24.7216 146.992 24.7053 146.962 24.7297Z" fill="#263238"/>
<path d="M143.786 21.2508C143.786 21.2508 143.522 22.5432 143.476 23.1609C143.476 23.2178 143.613 23.2585 143.809 23.291C144.294 23.4266 144.804 23.4164 145.284 23.2616C145.764 23.1068 146.196 22.8133 146.531 22.4131C146.576 22.3562 146.531 22.2912 146.455 22.3237C145.685 22.8009 144.791 22.9977 143.907 22.8846C143.907 22.7058 144.429 20.6818 144.338 20.6737C143.888 20.6783 143.441 20.7467 143.008 20.8769C143.484 18.1701 144.354 15.561 144.792 12.8542C144.792 12.8354 144.786 12.8173 144.775 12.8024C144.764 12.7875 144.75 12.7766 144.733 12.7712C144.716 12.7658 144.698 12.7662 144.682 12.7723C144.665 12.7785 144.651 12.7901 144.641 12.8055C143.619 15.5664 142.859 18.4312 142.373 21.3565C142.335 21.7385 143.552 21.3727 143.786 21.2508Z" fill="#263238"/>
<path d="M160.186 20.7631C159.414 20.3573 158.754 19.7434 158.269 18.9812C157.784 18.219 157.491 17.3346 157.419 16.4144C155.319 15.4206 153.504 13.8405 152.164 11.8382C152.24 12.1064 152.822 14.0328 153.139 15.0001C145.518 13.4476 143.174 7.16439 143.174 7.16439C141.712 8.60445 140.57 10.3796 139.832 12.3584C139.832 12.3584 139.787 7.32696 142.206 3.96183C142.99 2.79328 144.048 1.86965 145.273 1.28549C146.498 0.701338 147.846 0.477649 149.177 0.637339C151.069 0.149201 153.049 0.220928 154.906 0.8449C156.763 1.46887 158.428 2.6218 159.725 4.18129C164.67 9.96866 160.186 20.7631 160.186 20.7631Z" fill="#263238"/>
<path d="M147.378 13.6264C148.601 14.3533 149.919 14.8793 151.287 15.187C149.141 14.5409 147.205 13.2627 145.699 11.4968C145.061 10.7594 144.51 9.94038 144.059 9.05826C143.537 8.09561 143.195 7.03251 143.053 5.92886C143.053 5.91161 143.047 5.89507 143.035 5.88288C143.024 5.87068 143.009 5.86383 142.993 5.86383C142.977 5.86383 142.961 5.87068 142.95 5.88288C142.938 5.89507 142.932 5.91161 142.932 5.92886C142.965 7.04034 143.167 8.13854 143.529 9.18019C143.935 10.1887 144.509 11.1089 145.223 11.895C145.859 12.5906 146.585 13.1846 147.378 13.6589" fill="#263238"/>
<path d="M158.235 20.7306C158.235 20.7306 161.093 16.894 162.727 18.0157C164.36 19.1374 162.046 24.8191 160.012 25.4775C159.756 25.5812 159.483 25.6281 159.209 25.6155C158.936 25.603 158.667 25.5311 158.42 25.4044C158.173 25.2776 157.952 25.0986 157.771 24.8779C157.59 24.6572 157.452 24.3994 157.366 24.1201L158.235 20.7306Z" fill="#F7A9A0"/>
<path d="M162.023 19.6251V19.682C160.594 20.1941 159.755 21.5353 159.173 22.9334C159.263 22.7884 159.381 22.6662 159.52 22.5753C159.658 22.4844 159.813 22.4269 159.974 22.4068C160.135 22.3867 160.299 22.4045 160.453 22.4589C160.607 22.5133 160.748 22.6031 160.867 22.722C160.867 22.722 160.867 22.8114 160.821 22.8033C160.582 22.7002 160.318 22.6801 160.067 22.7456C159.817 22.8112 159.591 22.9592 159.422 23.1691C159.133 23.5206 158.879 23.9049 158.666 24.3152C158.591 24.4452 158.371 24.3152 158.432 24.2095C158.56 22.2668 160.103 19.6901 162.023 19.6251Z" fill="#263238"/>
<path d="M171.422 43.5956C178.226 54.1624 185.334 69.5493 185.976 81.7255C186.286 87.6755 176.903 93.4872 173.357 91.8291C165.002 87.9275 153.238 78.6368 148.512 72.3861C146.841 70.1833 163.256 54.1949 164.602 56.8691C165.947 59.5433 166.772 61.1121 168.065 62.1119C168.685 62.5996 165.645 56.2514 163.43 45.0993C160.398 29.8668 168.957 39.7752 171.422 43.5956Z" fill="#F7A9A0"/>
<path d="M150.236 31.2324C150.236 31.2324 152.769 27.5909 150.312 25.9327C147.854 24.2745 145.911 28.3224 145.911 28.3224L150.236 31.2324Z" fill="#DD6A57"/>
<path d="M130.183 55.2836L134.507 58.1984L150.321 31.0865L145.997 28.1717L130.183 55.2836Z" fill="#FFB347"/>
<path d="M145.085 28.8533L150.14 32.2604L150.766 31.1861L145.712 27.7791L145.085 28.8533Z" fill="#37474F"/>
<path d="M144.39 30.0428L149.444 33.4498L150.075 32.3687L145.021 28.9616L144.39 30.0428Z" fill="#37474F"/>
<path d="M130.184 55.276L129.859 59.7221L129.746 61.1853L130.933 60.4456L134.517 58.194L134.471 57.2267L133.647 57.6088L133.602 56.6415L132.778 57.0235V56.0644L131.946 56.4383L131.908 55.4792L131.077 55.8612V54.8939L130.184 55.276Z" fill="white"/>
<path d="M129.859 59.714L129.746 61.1852L130.933 60.4456L129.859 59.714Z" fill="#37474F"/>
<path d="M138.259 35.9956C136.823 38.3122 142.426 41.6285 142.426 41.6285C141.32 41.6304 140.251 42.0473 139.401 42.8071C137.949 44.2377 139.401 47.3102 139.401 47.3102C138.249 47.5714 137.196 48.197 136.377 49.1066C135.114 50.6266 136.165 53.9429 136.165 53.9429C135.226 54.8119 134.609 56.0149 134.426 57.3324C134.071 60.8764 138.29 63.9489 140.558 66.4037C142.985 69.0291 147.643 71.4432 149.487 73.3534L165.237 58.2591C165.237 58.2591 159.513 44.254 154.803 40.6206C152.149 38.5966 140.437 32.4598 138.259 35.9956Z" fill="#F7A9A0"/>
<path d="M142.509 41.5716C145.866 42.6933 148.973 44.6685 151.952 46.6112C152.02 46.6599 151.952 46.7656 151.892 46.725C148.951 44.7498 145.442 43.5793 142.441 41.7423C142.426 41.7287 142.416 41.7106 142.412 41.6905C142.407 41.6703 142.409 41.6493 142.417 41.6303C142.424 41.6113 142.437 41.5954 142.454 41.5849C142.47 41.5743 142.489 41.5697 142.509 41.5716Z" fill="#263238"/>
<path d="M139.583 47.1232C140.326 47.4556 141.025 47.8929 141.662 48.4237C142.365 48.9358 143.061 49.4642 143.749 50.0006C145.125 51.0844 146.476 52.1953 147.801 53.3333C147.854 53.3902 147.801 53.4958 147.733 53.4471C146.357 52.3741 144.974 51.3337 143.56 50.3258L141.42 48.8302C140.719 48.4122 140.062 47.9134 139.462 47.3427C139.441 47.3226 139.427 47.2954 139.423 47.2656C139.419 47.2359 139.424 47.2055 139.438 47.1796C139.453 47.1537 139.475 47.1339 139.501 47.1237C139.527 47.1134 139.556 47.1132 139.583 47.1232Z" fill="#263238"/>
<path d="M136.18 53.9917C136.844 54.3038 137.454 54.7323 137.987 55.2597C138.6 55.7637 139.22 56.2676 139.847 56.7635C141.095 57.7551 142.335 58.7468 143.628 59.6978C143.696 59.7466 143.628 59.8522 143.567 59.8034C142.267 58.8524 140.951 57.9177 139.658 56.9504C139.023 56.479 138.388 55.9994 137.753 55.5117C137.141 55.1316 136.596 54.6391 136.142 54.0567C136.14 54.0498 136.139 54.0424 136.14 54.035C136.141 54.0277 136.143 54.0206 136.147 54.0143C136.15 54.0081 136.155 54.0028 136.161 53.9989C136.167 53.9949 136.173 53.9925 136.18 53.9917Z" fill="#263238"/>
<path d="M155.687 41.4415C154.376 39.8339 152.637 38.6987 150.705 38.1902C150.622 38.1902 150.622 38.1902 150.705 38.2471C152.477 39.1004 154.141 40.193 155.657 41.4984C155.657 41.4984 155.71 41.4659 155.687 41.4415Z" fill="#263238"/>
<path d="M147.824 75.6293L164.844 56.1213L167.732 61.2747C167.732 61.2747 164.125 51.2606 162.87 44.9042C161.615 38.5479 161.517 31.086 169.395 40.3198C177.123 49.3992 187.133 74.5076 186.884 81.5305C186.634 88.5533 178.484 93.154 174.28 92.5281C170.076 91.9022 147.824 75.6293 147.824 75.6293Z" fill="#EBEBEB"/>
<path d="M152.512 77.4582C154.893 74.8408 164.269 63.7213 166.121 61.2015C166.258 61.0308 166.182 60.9008 166.023 61.0633C158.712 68.7365 154.614 74.6864 152.413 77.385C152.368 77.4256 152.451 77.5313 152.512 77.4582Z" fill="#263238"/>
<path d="M181.069 79.7747C180.049 78.0353 178.877 76.3771 177.758 74.7027C176.639 73.0282 175.489 71.3457 174.317 69.7037C173.146 68.0618 171.875 66.4524 170.62 64.8755C170 64.0627 168.783 62.5102 168.148 61.7136C167.513 60.917 167.467 61.1121 168.065 61.9818C168.662 62.8516 169.804 64.4203 170.378 65.2332C171.497 66.8588 172.601 68.5333 173.758 70.1508C174.915 71.7683 176.125 73.3615 177.312 74.9628C178.499 76.5641 179.678 78.2629 180.956 79.8398C181.009 79.8967 181.115 79.8398 181.069 79.7747Z" fill="#263238"/>
<path d="M166.053 55.5605C165.365 53.6503 164.541 51.7645 164.012 49.7975C164.008 49.785 164 49.7743 163.99 49.7667C163.98 49.7591 163.968 49.7551 163.955 49.7551C163.943 49.7551 163.931 49.7591 163.921 49.7667C163.911 49.7743 163.903 49.785 163.899 49.7975C164.299 51.0899 164.655 52.4067 164.995 53.7072C164.96 53.6576 164.927 53.6061 164.897 53.5528C164.594 53.0569 164.314 52.553 164.027 52.0409C163.989 51.9677 163.891 52.0409 163.929 52.1059C164.193 52.6343 164.45 53.1545 164.685 53.6828C164.86 54.1185 165.078 54.5327 165.335 54.9183C165.418 55.2028 165.501 55.4873 165.592 55.7311C166.226 57.6552 166.984 59.5292 167.86 61.3397C167.913 61.4454 168.08 61.3397 168.049 61.2421C167.445 59.3808 166.741 57.4625 166.053 55.5605Z" fill="#263238"/>
<path d="M164.972 56.0563C164.912 55.9588 164.496 56.4627 164.299 56.7309C164.261 56.7797 164.299 56.796 164.36 56.7309C164.509 56.6319 164.653 56.5234 164.791 56.4058C165.237 57.2837 167.687 61.3803 167.853 61.551C168.019 61.7217 167.997 61.551 167.959 61.4454C167.807 61.0064 165.517 56.9504 164.972 56.0563Z" fill="#263238"/>
<path d="M168.359 89.5287C163.112 85.7328 157.774 82.0751 152.315 78.6287C150.803 77.6858 149.404 76.6616 147.93 75.6699C148.089 75.548 149.442 73.8492 149.51 73.7923L149.465 73.7435C149.306 73.898 147.529 75.5724 147.408 75.7675C147.287 75.9626 152.89 79.6284 155.521 81.4573C158.152 83.2862 160.904 85.0338 163.626 86.757C165.174 87.7378 166.734 88.6942 168.307 89.6263C168.367 89.6913 168.42 89.5856 168.359 89.5287Z" fill="#263238"/>
<path d="M118.73 99.2746L145.533 98.8519L132.521 62.0793L105.71 62.4939L118.73 99.2746Z" fill="#EBEBEB"/>
<path d="M116.892 99.299L143.703 98.8844L130.683 62.1038L103.88 62.5264L116.892 99.299Z" fill="#FFB347"/>
<path d="M127.84 62.1525C128.032 62.7932 128.45 63.3273 129.005 63.64C129.262 63.7863 129.33 63.4205 129.073 63.2905C128.731 63.0748 128.465 62.7432 128.317 62.3476C128.287 62.2827 128.265 62.2145 128.249 62.1444C128.176 61.92 128.158 61.6794 128.196 61.4454C128.222 61.3449 128.274 61.2546 128.347 61.1853H128.43C128.492 61.1656 128.558 61.1656 128.619 61.1853C128.736 61.2249 128.843 61.2947 128.929 61.3885C129.079 61.5713 129.21 61.7702 129.322 61.9818V62.0306C129.338 62.0532 129.35 62.0777 129.36 62.1037C129.363 62.1198 129.363 62.1365 129.36 62.1525H129.738C129.647 61.9013 129.522 61.6658 129.368 61.4535C129.252 61.2645 129.099 61.1048 128.921 60.9855C128.742 60.8662 128.541 60.7901 128.332 60.7626C128.18 60.7622 128.033 60.8243 127.922 60.9361C127.811 61.0478 127.744 61.2009 127.735 61.3641C127.708 61.6323 127.745 61.9032 127.84 62.1525Z" fill="#455A64"/>
<path d="M125.739 62.185C125.931 62.828 126.352 63.3629 126.91 63.6725C127.168 63.8188 127.228 63.453 126.978 63.323C126.613 63.1198 126.324 62.7866 126.162 62.3801C126.138 62.3136 126.118 62.2458 126.101 62.1769C126.025 61.9534 126.007 61.7117 126.049 61.4779C126.069 61.3768 126.119 61.2855 126.192 61.2177H126.245C126.304 61.1978 126.367 61.1978 126.427 61.2177C126.546 61.2562 126.656 61.326 126.744 61.421C126.85 61.5349 126.942 61.6634 127.016 61.803C127.062 61.868 127.092 61.9412 127.137 62.0143V62.0631C127.14 62.0874 127.14 62.112 127.137 62.1363C127.137 62.1363 127.137 62.1363 127.137 62.185H127.515C127.421 61.9353 127.297 61.7002 127.145 61.486C127.028 61.2968 126.874 61.137 126.693 61.0178C126.513 60.8985 126.311 60.8225 126.101 60.7951C125.95 60.7928 125.803 60.8545 125.693 60.9668C125.583 61.0792 125.518 61.2334 125.512 61.3966C125.527 61.6753 125.605 61.9458 125.739 62.185Z" fill="#455A64"/>
<path d="M123.644 62.2175C123.836 62.8582 124.254 63.3924 124.809 63.705C125.066 63.8513 125.134 63.4856 124.877 63.3555C124.534 63.1398 124.268 62.8082 124.12 62.4126C124.091 62.3477 124.068 62.2796 124.052 62.2094C123.98 61.985 123.962 61.7444 124 61.5104C124.026 61.4099 124.078 61.3196 124.151 61.2503H124.204C124.265 61.2306 124.331 61.2306 124.393 61.2503C124.509 61.2929 124.614 61.3623 124.703 61.4535C124.852 61.6364 124.984 61.8352 125.096 62.0469V62.0956C125.111 62.1182 125.124 62.1428 125.134 62.1688C125.134 62.1688 125.134 62.1688 125.134 62.2175H125.512C125.421 61.9663 125.296 61.7308 125.141 61.5185C125.025 61.3295 124.873 61.1698 124.694 61.0505C124.515 60.9312 124.314 60.8552 124.105 60.8276C123.953 60.8273 123.807 60.8893 123.696 61.0011C123.585 61.1129 123.518 61.2659 123.508 61.4291C123.491 61.7 123.538 61.9711 123.644 62.2175Z" fill="#455A64"/>
<path d="M121.542 62.2501C121.734 62.893 122.156 63.4279 122.714 63.7375C122.971 63.8839 123.032 63.5181 122.782 63.388C122.439 63.1733 122.173 62.8414 122.026 62.4451C122.003 62.3786 121.982 62.3108 121.966 62.2419C121.889 62.0184 121.871 61.7767 121.913 61.5429C121.933 61.4418 121.984 61.3506 122.056 61.2828H122.109C122.168 61.2628 122.232 61.2628 122.291 61.2828C122.409 61.325 122.517 61.3944 122.608 61.486C122.714 61.6 122.806 61.7284 122.88 61.868C122.923 61.9356 122.961 62.0062 122.994 62.0794V62.1281C122.997 62.1524 122.997 62.177 122.994 62.2013C122.994 62.2013 122.994 62.2013 122.994 62.2501H123.38C123.286 62.0003 123.161 61.7652 123.009 61.551C122.892 61.3618 122.738 61.2021 122.558 61.0828C122.378 60.9636 122.176 60.8876 121.966 60.8601C121.814 60.8579 121.667 60.9195 121.557 61.0319C121.447 61.1442 121.382 61.2985 121.376 61.4616C121.372 61.7349 121.429 62.0051 121.542 62.2501Z" fill="#455A64"/>
<path d="M119.448 62.2826C119.64 62.9233 120.058 63.4574 120.612 63.7701C120.869 63.9164 120.937 63.5506 120.68 63.4206C120.338 63.2049 120.072 62.8733 119.924 62.4777C119.895 62.4127 119.872 62.3446 119.856 62.2745C119.783 62.0501 119.765 61.8095 119.803 61.5754C119.829 61.4749 119.882 61.3846 119.954 61.3153H120.007C120.069 61.2957 120.135 61.2957 120.196 61.3153C120.312 61.3579 120.418 61.4273 120.506 61.5185C120.656 61.7014 120.788 61.9002 120.9 62.1119V62.1607C120.915 62.1832 120.928 62.2078 120.937 62.2338C120.937 62.2338 120.937 62.2338 120.937 62.2826H121.315C121.224 62.0313 121.1 61.7958 120.945 61.5835C120.829 61.3945 120.677 61.2348 120.498 61.1155C120.319 60.9962 120.118 60.9202 119.909 60.8926C119.757 60.8923 119.61 60.9543 119.499 61.0661C119.388 61.1779 119.321 61.331 119.312 61.4941C119.295 61.765 119.342 62.0361 119.448 62.2826Z" fill="#455A64"/>
<path d="M117.346 62.3151C117.538 62.9581 117.96 63.493 118.518 63.8026C118.775 63.9489 118.835 63.5831 118.586 63.453C118.227 63.2476 117.947 62.9142 117.792 62.5102L117.724 62.307C117.654 62.0819 117.638 61.8413 117.679 61.6079C117.699 61.5068 117.749 61.4156 117.822 61.3478H117.868C117.929 61.3277 117.995 61.3277 118.057 61.3478C118.175 61.3901 118.283 61.4594 118.374 61.551C118.48 61.665 118.572 61.7934 118.646 61.9331C118.689 62.0006 118.726 62.0712 118.76 62.1444V62.1932C118.763 62.2174 118.763 62.242 118.76 62.2663C118.76 62.2663 118.76 62.2663 118.76 62.3151H119.145C119.05 62.0663 118.925 61.8314 118.775 61.6161C118.658 61.4268 118.504 61.2671 118.324 61.1478C118.143 61.0286 117.941 60.9526 117.731 60.9251C117.58 60.9229 117.433 60.9845 117.323 61.0969C117.213 61.2093 117.148 61.3635 117.142 61.5266C117.15 61.8033 117.22 62.0737 117.346 62.3151Z" fill="#455A64"/>
<path d="M115.251 62.3476C115.443 62.9883 115.861 63.5224 116.416 63.8351C116.673 63.9814 116.741 63.6156 116.484 63.4856C116.14 63.2718 115.874 62.9396 115.728 62.5427C115.698 62.4777 115.676 62.4096 115.66 62.3395C115.587 62.1151 115.569 61.8745 115.607 61.6404C115.633 61.5399 115.685 61.4496 115.758 61.3803H115.811C115.873 61.3607 115.938 61.3607 116 61.3803C116.116 61.4229 116.222 61.4923 116.31 61.5835C116.459 61.7664 116.591 61.9652 116.703 62.1769V62.2257C116.719 62.2482 116.731 62.2728 116.741 62.2988C116.741 62.2988 116.741 62.2988 116.741 62.3476H117.119C117.026 62.0972 116.902 61.8619 116.749 61.6485C116.633 61.4595 116.48 61.2998 116.301 61.1805C116.122 61.0612 115.922 60.9852 115.713 60.9576C115.561 60.9573 115.414 61.0194 115.303 61.1311C115.192 61.2429 115.125 61.396 115.115 61.5591C115.099 61.83 115.146 62.1011 115.251 62.3476Z" fill="#455A64"/>
<path d="M113.15 62.3801C113.342 63.0231 113.763 63.558 114.321 63.8676C114.579 64.0139 114.639 63.6481 114.389 63.5181C114.033 63.3136 113.753 62.9836 113.596 62.5833L113.528 62.372C113.457 62.147 113.442 61.9063 113.482 61.673C113.503 61.5719 113.553 61.4806 113.626 61.4129H113.671C113.733 61.3927 113.799 61.3927 113.86 61.4129C113.981 61.4536 114.09 61.5263 114.178 61.6242C114.285 61.7338 114.377 61.8598 114.45 61.9981C114.492 62.0657 114.53 62.1363 114.563 62.2094V62.2582C114.566 62.2825 114.566 62.3071 114.563 62.3313C114.563 62.3313 114.563 62.3314 114.563 62.3801H114.949C114.855 62.1278 114.731 61.89 114.579 61.673C114.461 61.4837 114.307 61.324 114.127 61.2047C113.947 61.0855 113.745 61.0095 113.535 60.9821C113.383 60.9798 113.237 61.0414 113.126 61.1538C113.016 61.2662 112.951 61.4204 112.945 61.5835C112.952 61.8629 113.022 62.1363 113.15 62.3801Z" fill="#455A64"/>
<path d="M111.04 62.4126C111.232 63.0533 111.65 63.5874 112.204 63.9001C112.462 64.0464 112.53 63.6806 112.272 63.5506C111.931 63.3379 111.665 63.0091 111.516 62.6158C111.486 62.5486 111.463 62.4776 111.448 62.4045C111.376 62.1801 111.358 61.9395 111.395 61.7055C111.42 61.6065 111.473 61.5183 111.547 61.4535H111.6C111.661 61.4338 111.727 61.4338 111.789 61.4535C111.906 61.4955 112.013 61.5681 112.099 61.6648C112.206 61.7745 112.298 61.9004 112.371 62.0387C112.416 62.1062 112.456 62.1768 112.492 62.2501V62.2988C112.494 62.3231 112.494 62.3477 112.492 62.372C112.492 62.372 112.492 62.372 112.492 62.4207H112.87C112.777 62.1678 112.653 61.9298 112.499 61.7136C112.384 61.5246 112.231 61.3649 112.052 61.2456C111.873 61.1263 111.672 61.0502 111.463 61.0227C111.311 61.0223 111.165 61.0844 111.054 61.1962C110.943 61.3079 110.876 61.461 110.866 61.6242C110.861 61.8986 110.921 62.1698 111.04 62.4126Z" fill="#455A64"/>
<path d="M108.953 62.4451C109.145 63.0881 109.567 63.623 110.125 63.9326C110.382 64.0789 110.443 63.7132 110.193 63.5831C109.837 63.3786 109.556 63.0486 109.399 62.6483L109.331 62.4451C109.261 62.2172 109.246 61.9741 109.286 61.738C109.305 61.6384 109.356 61.5492 109.43 61.486H109.528C109.589 61.4659 109.655 61.4659 109.717 61.486C109.837 61.5268 109.947 61.5995 110.034 61.6973C110.142 61.807 110.233 61.933 110.307 62.0712C110.349 62.1388 110.387 62.2094 110.42 62.2826V62.3313C110.423 62.3556 110.423 62.3802 110.42 62.4045C110.42 62.4045 110.42 62.4045 110.42 62.4533H110.806C110.71 62.2018 110.586 61.9643 110.435 61.7461C110.318 61.5569 110.164 61.3972 109.984 61.2779C109.804 61.1587 109.602 61.0827 109.392 61.0552C109.24 61.053 109.093 61.1146 108.983 61.227C108.873 61.3393 108.808 61.4936 108.802 61.6567C108.794 61.9287 108.846 62.1988 108.953 62.4451Z" fill="#455A64"/>
<path d="M106.859 62.4777C107.051 63.1183 107.469 63.6525 108.023 63.9651C108.28 64.1115 108.348 63.7457 108.091 63.6156C107.881 63.5031 107.696 63.3432 107.549 63.1468C107.401 62.9504 107.295 62.7222 107.237 62.4777C107.165 62.2504 107.146 62.0073 107.184 61.7705C107.205 61.67 107.259 61.5808 107.335 61.5185H107.388C107.45 61.4989 107.515 61.4989 107.577 61.5185C107.695 61.5605 107.802 61.6331 107.887 61.7299C107.994 61.8395 108.086 61.9655 108.159 62.1037C108.204 62.1712 108.244 62.2418 108.28 62.3151V62.3639C108.296 62.3864 108.308 62.411 108.318 62.437C108.318 62.437 108.318 62.437 108.318 62.4858H108.696C108.604 62.2328 108.479 61.9948 108.326 61.7786C108.21 61.5896 108.057 61.4299 107.878 61.3106C107.7 61.1913 107.499 61.1153 107.29 61.0877C107.138 61.0874 106.991 61.1494 106.88 61.2612C106.769 61.373 106.702 61.526 106.693 61.6892C106.685 61.9629 106.743 62.2341 106.859 62.4777Z" fill="#455A64"/>
<path d="M104.757 62.5102C104.949 63.1532 105.371 63.6881 105.929 63.9977C106.186 64.144 106.246 63.7782 105.997 63.6481C105.64 63.4437 105.36 63.1136 105.203 62.7134L105.135 62.5102C105.065 62.2823 105.049 62.0391 105.09 61.803C105.108 61.7034 105.159 61.6142 105.233 61.551H105.279C105.34 61.5309 105.406 61.5309 105.468 61.551C105.586 61.593 105.692 61.6656 105.778 61.7624C105.89 61.8694 105.984 61.9958 106.057 62.1363C106.1 62.2039 106.138 62.2745 106.171 62.3476V62.3964C106.174 62.4207 106.174 62.4453 106.171 62.4695C106.171 62.4695 106.171 62.4695 106.171 62.5183H106.556C106.461 62.2669 106.336 62.0293 106.186 61.8111C106.069 61.6219 105.915 61.4622 105.735 61.3429C105.554 61.2237 105.352 61.1477 105.143 61.1202C104.991 61.118 104.844 61.1796 104.734 61.292C104.624 61.4044 104.559 61.5586 104.553 61.7217C104.561 61.9984 104.631 62.2688 104.757 62.5102Z" fill="#455A64"/>
<path d="M105.626 71.5001C104.56 74.7514 101.483 79.0269 101.453 81.6036C101.424 82.2371 101.585 82.8639 101.913 83.391C102.242 83.918 102.719 84.3174 103.275 84.5298C103.275 84.5298 101.007 86.066 101.37 88.407C101.536 89.6181 103.479 90.3822 103.479 90.3822C102.991 90.7589 102.608 91.273 102.373 91.868C102.139 92.463 102.061 93.116 102.148 93.7554C102.474 95.3811 104.371 95.9257 104.371 95.9257C104.371 95.9257 103.245 98.0228 104.076 99.5835C105.77 102.745 119.115 101.209 120.658 95.6981C121.376 93.1214 118.132 93.6904 118.132 93.6904C118.132 93.6904 122.616 91.6665 122.389 88.6996C122.162 85.7328 117.996 86.7407 117.996 86.7407C117.996 86.7407 122.321 84.7411 121.777 81.693C121.232 78.5148 117.24 80.2868 117.24 80.2868C117.24 80.2868 119.992 77.7833 119.1 75.548C117.588 71.8577 112.477 77.3037 109.467 76.8892L107.335 71.874L105.626 71.5001Z" fill="#F7A9A0"/>
<path d="M103.396 76.3283C104.152 73.1339 100.243 69.7525 100.561 66.5743C100.992 62.2988 105.778 65.8915 107.365 71.8577L107.834 76.7347L103.396 76.3283Z" fill="#F7A9A0"/>
<path d="M103.411 90.4229C103.366 90.4229 103.366 90.5123 103.411 90.5204C108.578 91.2295 113.81 89.9293 118.162 86.8545C118.314 86.7407 118.336 86.4806 118.162 86.5944C115.123 88.5371 107.751 90.3416 103.411 90.4229Z" fill="#263238"/>
<path d="M117.497 79.9454C113.218 82.9041 108.484 84.099 103.464 84.5704C103.396 84.5704 103.411 84.6761 103.464 84.6842C105.974 85.1719 109.15 84.5135 111.577 83.7739C113.845 83.1387 115.917 81.8746 117.588 80.108C117.663 80.0348 117.595 79.8804 117.497 79.9454Z" fill="#263238"/>
</svg>
