<svg width="287" height="43" viewBox="0 0 287 43" fill="none" xmlns="http://www.w3.org/2000/svg">
<path d="M17.0611 2.20002C20.1011 2.20002 22.2611 2.86668 23.5411 4.20002C24.5011 5.21335 24.9811 6.49335 24.9811 8.04002C24.9811 8.57335 24.9278 9.13335 24.8211 9.72002L24.4611 11.64C24.1678 13.16 23.5944 14.3467 22.7411 15.2C21.9144 16.0533 21.1811 16.48 20.5411 16.48L20.5011 16.8C21.2478 16.8 22.0078 17.2134 22.7811 18.04C23.5544 18.8667 23.9411 19.84 23.9411 20.96C23.9411 21.4133 23.8878 21.8934 23.7811 22.4L23.5411 23.64C23.1144 25.9333 22.0878 27.7334 20.4611 29.04C18.8611 30.3467 16.6211 31 13.7411 31H0.381104L5.4611 2.20002H17.0611ZM13.4611 19.24H9.6611L8.7011 24.76H12.5011C12.5544 24.76 12.6078 24.76 12.6611 24.76C13.8878 24.76 14.8611 24.48 15.5811 23.92C16.3011 23.3333 16.6611 22.6267 16.6611 21.8C16.6611 20.0933 15.5944 19.24 13.4611 19.24ZM14.5411 8.44002H11.5411L10.5011 14.4H13.4611C16.0211 14.4 17.3011 13.28 17.3011 11.04C17.3011 10.2667 17.0611 9.64002 16.5811 9.16002C16.1278 8.68002 15.4478 8.44002 14.5411 8.44002Z" fill="black"/>
<path d="M46.0702 24.84C46.0702 25.5333 46.4168 25.88 47.1102 25.88C47.8302 25.88 48.4302 25.7467 48.9102 25.48L48.7102 30C47.4302 31.04 45.9902 31.56 44.3902 31.56C41.3768 31.56 39.7368 30.4 39.4702 28.08C37.8702 30.4 35.7102 31.56 32.9902 31.56C30.2968 31.56 28.5502 30.9467 27.7502 29.72C27.2168 28.9467 26.9502 28.0667 26.9502 27.08C26.9502 26.0933 27.0302 25.1867 27.1902 24.36L29.4302 11.76H36.2302L34.3502 22.4C34.2702 22.88 34.2302 23.36 34.2302 23.84C34.2302 25.12 34.9502 25.76 36.3902 25.76C37.5902 25.76 38.5502 25.3467 39.2702 24.52L41.5502 11.76H48.3502L46.1102 24.36C46.0835 24.52 46.0702 24.68 46.0702 24.84Z" fill="black"/>
<path d="M70.1595 24.84C70.1595 25.5333 70.5062 25.88 71.1995 25.88C71.9195 25.88 72.5195 25.7467 72.9995 25.48L72.7995 30C71.5195 31.04 70.0795 31.56 68.4795 31.56C65.5462 31.56 63.9195 30.4934 63.5995 28.36C62.2662 30.4934 60.3062 31.56 57.7195 31.56C53.3462 31.56 51.1595 29.68 51.1595 25.92C51.1595 25.28 51.2262 24.5733 51.3595 23.8L52.1995 19.12C52.6262 16.72 53.5995 14.8134 55.1195 13.4C56.6662 11.96 58.7995 11.24 61.5195 11.24C63.1995 11.24 64.5329 11.6 65.5195 12.32L67.5595 0.640015H74.3995L70.1995 24.36C70.1729 24.52 70.1595 24.68 70.1595 24.84ZM58.3195 22.92C58.2662 23.16 58.2395 23.4933 58.2395 23.92C58.2395 24.3467 58.4395 24.7734 58.8395 25.2C59.2395 25.6 59.9062 25.8 60.8395 25.8C61.7995 25.8 62.6262 25.4267 63.3195 24.68L64.5195 17.96C64.2262 17.2934 63.5329 16.96 62.4395 16.96C60.3862 16.96 59.1862 17.9467 58.8395 19.92L58.3195 22.92Z" fill="black"/>
<path d="M95.0033 24.84C95.0033 25.5333 95.35 25.88 96.0433 25.88C96.7633 25.88 97.3633 25.7467 97.8433 25.48L97.6433 30C96.3633 31.04 94.9233 31.56 93.3233 31.56C90.39 31.56 88.7633 30.4934 88.4433 28.36C87.11 30.4934 85.15 31.56 82.5633 31.56C78.1899 31.56 76.0033 29.68 76.0033 25.92C76.0033 25.28 76.07 24.5733 76.2033 23.8L77.0433 19.12C77.47 16.72 78.4433 14.8134 79.9633 13.4C81.51 11.96 83.6433 11.24 86.3633 11.24C88.0433 11.24 89.3766 11.6 90.3633 12.32L92.4033 0.640015H99.2433L95.0433 24.36C95.0166 24.52 95.0033 24.68 95.0033 24.84ZM83.1633 22.92C83.11 23.16 83.0833 23.4933 83.0833 23.92C83.0833 24.3467 83.2833 24.7734 83.6833 25.2C84.0833 25.6 84.75 25.8 85.6833 25.8C86.6433 25.8 87.47 25.4267 88.1633 24.68L89.3633 17.96C89.07 17.2934 88.3766 16.96 87.2833 16.96C85.23 16.96 84.03 17.9467 83.6833 19.92L83.1633 22.92Z" fill="black"/>
<path d="M108.727 22.4C108.647 22.88 108.607 23.36 108.607 23.84C108.607 25.12 109.327 25.76 110.767 25.76C111.94 25.76 112.914 25.3467 113.687 24.52L115.927 11.76H122.727L119.207 31.64C118.62 35.0267 117.274 37.7067 115.167 39.68C113.087 41.6534 110.7 42.64 108.007 42.64C105.314 42.64 103.367 42.1467 102.167 41.16C100.994 40.1734 100.407 38.88 100.407 37.28C100.407 35.0133 101.807 33 104.607 31.24C103.087 30.8667 102.127 30.1067 101.727 28.96C101.487 28.32 101.367 27.6 101.367 26.8C101.367 26 101.434 25.1867 101.567 24.36L103.807 11.76H110.607L108.727 22.4ZM108.927 36.92C110.66 36.92 111.794 35.3467 112.327 32.2L112.727 29.88C109.02 31.6134 107.167 33.36 107.167 35.12C107.167 35.6534 107.314 36.08 107.607 36.4C107.927 36.7467 108.367 36.92 108.927 36.92Z" fill="black"/>
<path d="M142.229 31.56C135.802 31.56 132.589 29.2267 132.589 24.56C132.589 23.84 132.669 23.0667 132.829 22.24L133.349 19.28H140.549L140.309 20.6C140.202 21.2667 140.149 21.9467 140.149 22.64C140.149 23.3333 140.322 23.9067 140.669 24.36C141.202 25.0267 142.082 25.36 143.309 25.36C144.536 25.36 145.522 25.0267 146.269 24.36C147.042 23.6934 147.589 22.4667 147.909 20.68L151.189 2.16002H158.349L154.989 21.24C154.376 24.7867 153.042 27.4 150.989 29.08C148.936 30.7334 146.016 31.56 142.229 31.56Z" fill="black"/>
<path d="M170.742 11.2C173.622 11.2 175.796 11.8267 177.262 13.08C178.409 14.0667 178.982 15.44 178.982 17.2C178.982 17.7867 178.916 18.4267 178.782 19.12L177.942 23.8C177.436 26.6267 176.249 28.6267 174.382 29.8C172.542 30.9734 170.076 31.56 166.982 31.56C163.889 31.56 161.622 30.9734 160.182 29.8C159.116 28.92 158.582 27.6 158.582 25.84C158.582 25.2267 158.649 24.5467 158.782 23.8L159.622 19.12C160.556 13.84 164.262 11.2 170.742 11.2ZM171.822 19.92C171.876 19.6534 171.902 19.32 171.902 18.92C171.902 18.4934 171.729 18.0267 171.382 17.52C171.036 17.0134 170.422 16.76 169.542 16.76C168.689 16.76 167.969 17.0534 167.382 17.64C166.796 18.2 166.422 18.96 166.262 19.92L165.742 22.92C165.689 23.1867 165.662 23.5333 165.662 23.96C165.662 24.36 165.836 24.8 166.182 25.28C166.529 25.76 167.129 26 167.982 26C168.862 26 169.596 25.7067 170.182 25.12C170.769 24.5067 171.142 23.7733 171.302 22.92L171.822 19.92Z" fill="black"/>
<path d="M200.64 24.84C200.64 25.5333 200.987 25.88 201.68 25.88C202.4 25.88 203 25.7467 203.48 25.48L203.28 30C202 31.04 200.56 31.56 198.96 31.56C195.947 31.56 194.307 30.4 194.04 28.08C192.44 30.4 190.28 31.56 187.56 31.56C184.867 31.56 183.12 30.9467 182.32 29.72C181.787 28.9467 181.52 28.0667 181.52 27.08C181.52 26.0933 181.6 25.1867 181.76 24.36L184 11.76H190.8L188.92 22.4C188.84 22.88 188.8 23.36 188.8 23.84C188.8 25.12 189.52 25.76 190.96 25.76C192.16 25.76 193.12 25.3467 193.84 24.52L196.12 11.76H202.92L200.68 24.36C200.654 24.52 200.64 24.68 200.64 24.84Z" fill="black"/>
<path d="M225.37 15.84C225.37 16.7467 225.21 17.6267 224.89 18.48C224.597 19.3334 224.303 19.96 224.01 20.36L223.57 20.92H217.53C218.197 20.3067 218.53 19.5467 218.53 18.64C218.53 18.16 218.37 17.7733 218.05 17.48C217.757 17.16 217.343 17 216.81 17C215.903 17 215.117 17.4533 214.45 18.36L212.21 31H205.41L208.81 11.76H215.13L214.65 14.44C216.17 12.28 218.01 11.2 220.17 11.2C221.903 11.2 223.197 11.6133 224.05 12.44C224.93 13.2667 225.37 14.4 225.37 15.84Z" fill="black"/>
<path d="M239.397 18.72C239.397 17.5733 238.837 17 237.717 17C236.623 17 235.717 17.4133 234.997 18.24L232.757 31H225.957L229.357 11.76H235.677L235.237 14.12C236.81 12.1733 238.797 11.2 241.197 11.2C243.597 11.2 245.157 11.7867 245.877 12.96C246.33 13.7067 246.557 14.56 246.557 15.52C246.557 16.48 246.49 17.3734 246.357 18.2L245.277 24.36C245.25 24.52 245.237 24.6667 245.237 24.8C245.237 25.52 245.637 25.88 246.437 25.88C247.05 25.88 247.597 25.7467 248.077 25.48L247.877 30C246.623 31.04 245.197 31.56 243.597 31.56C239.97 31.56 238.157 30.04 238.157 27C238.157 26.4667 238.21 25.8933 238.317 25.28L239.277 19.96C239.357 19.48 239.397 19.0667 239.397 18.72Z" fill="black"/>
<path d="M269.183 24.84C269.183 25.5333 269.53 25.88 270.223 25.88C270.943 25.88 271.543 25.7467 272.023 25.48L271.823 30C270.543 31.04 269.103 31.56 267.503 31.56C264.57 31.56 262.943 30.4934 262.623 28.36C261.29 30.4934 259.33 31.56 256.743 31.56C252.37 31.56 250.183 29.68 250.183 25.92C250.183 25.28 250.25 24.5733 250.383 23.8L251.223 19.12C251.65 16.72 252.623 14.8134 254.143 13.4C255.69 11.96 257.69 11.24 260.143 11.24C262.623 11.24 264.303 11.8133 265.183 12.96L265.383 11.76H271.463L269.223 24.36C269.196 24.52 269.183 24.68 269.183 24.84ZM257.343 22.92C257.29 23.16 257.263 23.4933 257.263 23.92C257.263 24.3467 257.463 24.7734 257.863 25.2C258.263 25.6 258.93 25.8 259.863 25.8C260.823 25.8 261.65 25.4267 262.343 24.68L263.543 17.96C263.25 17.2934 262.556 16.96 261.463 16.96C259.41 16.96 258.21 17.9467 257.863 19.92L257.343 22.92Z" fill="black"/>
<path d="M281.925 24.84C281.925 25.5333 282.272 25.88 282.965 25.88C283.685 25.88 284.285 25.7467 284.765 25.48L284.565 30C283.285 31.04 281.845 31.56 280.245 31.56C277.819 31.56 276.245 31 275.525 29.88C275.072 29.16 274.845 28.3734 274.845 27.52C274.845 26.6667 274.899 25.92 275.005 25.28L279.365 0.640015H286.165L281.965 24.36C281.939 24.52 281.925 24.68 281.925 24.84Z" fill="black"/>
</svg>
