<svg width="99" height="301" viewBox="0 0 99 301" fill="none" xmlns="http://www.w3.org/2000/svg">
<path d="M17.4954 249.819C19.3705 249.478 64.7361 223.402 65.8853 221.232C66.3239 220.419 63.1785 213.104 59.141 204.35C58.2639 202.464 57.3566 200.521 56.419 198.554C50.3703 185.776 43.6562 172.373 43.6562 172.373L13.2839 189.727L26.8936 215.428L29.8726 221.078C29.8726 221.078 16.6637 239.415 15.6429 241.935C14.6222 244.455 15.6278 250.161 17.4954 249.819Z" fill="#F7A9A0"/>
<path d="M17.4954 249.819C19.3705 249.478 64.7361 223.402 65.8854 221.232C66.4146 220.224 61.6588 209.625 56.4191 198.554L26.8936 215.428L29.8726 221.078C29.8726 221.078 16.6637 239.415 15.643 241.935C14.6222 244.455 15.6278 250.161 17.4954 249.819Z" fill="white"/>
<path d="M17.4954 249.819C19.3705 249.478 64.7361 223.402 65.8854 221.232C66.3239 220.419 63.1786 213.104 59.141 204.349L29.8424 221.078C29.8424 221.078 16.6335 239.415 15.6127 241.935C14.592 244.455 15.6279 250.161 17.4954 249.819Z" fill="#FFB347"/>
<path d="M17.1778 247.495C24.6858 242.927 55.353 225.239 63.0954 221.338C63.1559 221.338 63.1786 221.338 63.0954 221.386C55.7537 226.093 24.9505 243.504 17.2232 247.633C17.0644 247.714 17.0191 247.592 17.1778 247.495Z" fill="#263238"/>
<path d="M17.6466 238.505C18.4801 237.994 19.4032 237.676 20.3573 237.57C21.3114 237.463 22.2756 237.571 23.1888 237.887C24.8387 238.435 26.2265 239.65 27.06 241.276C27.06 241.325 26.9995 241.374 26.9692 241.325C25.906 239.855 24.4274 238.795 22.7557 238.305C21.084 237.816 19.3097 237.923 17.6995 238.61C17.639 238.635 17.5861 238.545 17.6466 238.505Z" fill="#263238"/>
<path d="M27.2944 223.581C30.3187 221.785 34.4168 220.915 37.6377 222.5C37.7663 222.565 37.6831 222.752 37.5697 222.76C34.1608 222.791 30.7645 223.21 27.438 224.012C27.3849 224.032 27.3264 224.029 27.2753 224.003C27.2243 223.977 27.1849 223.931 27.1658 223.874C27.1468 223.817 27.1496 223.754 27.1737 223.699C27.1978 223.644 27.2412 223.602 27.2944 223.581Z" fill="#263238"/>
<path d="M25.4344 225.922C28.4588 224.126 32.5568 223.248 35.7777 224.841C35.9063 224.898 35.8231 225.093 35.7097 225.093C32.3003 225.122 28.9036 225.544 25.5781 226.353C25.5249 226.373 25.4664 226.37 25.4153 226.344C25.3643 226.318 25.3249 226.272 25.3059 226.215C25.2868 226.158 25.2896 226.095 25.3137 226.04C25.3378 225.985 25.3813 225.943 25.4344 225.922Z" fill="#263238"/>
<path d="M23.5744 228.255C26.5987 226.459 30.6968 225.589 33.9177 227.174C34.0463 227.239 33.9631 227.426 33.8497 227.426C30.4403 227.455 27.0436 227.877 23.718 228.686C23.6649 228.706 23.6064 228.703 23.5553 228.677C23.5043 228.651 23.4649 228.605 23.4459 228.547C23.4268 228.49 23.4296 228.427 23.4537 228.373C23.4778 228.318 23.5212 228.275 23.5744 228.255Z" fill="#263238"/>
<path d="M21.7144 230.588C24.7388 228.791 28.8368 227.922 32.0577 229.507C32.1863 229.572 32.1031 229.759 31.9897 229.767C28.5803 229.796 25.1836 230.218 21.8581 231.027C21.8068 231.036 21.754 231.026 21.7091 230.998C21.6641 230.97 21.6299 230.926 21.6127 230.873C21.5954 230.82 21.5961 230.762 21.6148 230.71C21.6334 230.658 21.6687 230.615 21.7144 230.588Z" fill="#263238"/>
<path d="M57.2961 214.705C60.7137 212.754 63.5415 218.468 60.1164 220.395C56.6913 222.321 53.871 216.64 57.2961 214.705Z" fill="#263238"/>
<path d="M22.2891 221.403C25.0639 222.736 28.2773 222.728 31.2488 223.093C31.3152 223.097 31.3814 223.082 31.4418 223.052C31.5021 223.022 31.5549 222.977 31.5956 222.921C31.6364 222.864 31.6639 222.798 31.6759 222.727C31.6879 222.657 31.684 222.585 31.6646 222.516C31.7175 222.516 31.7554 222.435 31.71 222.37C29.9963 219.495 27.6073 217.156 24.7842 215.591C23.1283 214.713 20.5198 214.486 19.6579 216.745C18.7959 219.005 20.671 220.622 22.2891 221.403ZM20.7769 218.769C19.3101 215.038 23.6576 216.054 24.8522 216.753C25.6233 217.221 26.3635 217.745 27.0676 218.322C28.542 219.493 29.8349 220.866 31.1958 222.183C29.7441 221.907 28.2849 221.768 26.8332 221.549C25.1169 221.289 21.601 220.826 20.7996 218.769H20.7769Z" fill="#263238"/>
<path d="M41.4862 214.063C40.1858 212.063 37.7058 212.909 36.2465 214.16C33.8181 216.361 31.9696 219.209 30.8858 222.419C30.8812 222.433 30.8795 222.447 30.8809 222.462C30.8824 222.477 30.887 222.491 30.8942 222.504C30.9015 222.516 30.9113 222.527 30.923 222.534C30.9346 222.542 30.9478 222.547 30.9614 222.549C30.9585 222.62 30.971 222.692 30.998 222.757C31.025 222.823 31.0657 222.88 31.117 222.926C31.1683 222.972 31.2287 223.004 31.2936 223.02C31.3584 223.037 31.4259 223.037 31.4907 223.02C34.3109 221.955 37.4487 221.191 39.8758 219.232C41.2972 218.086 42.7111 215.957 41.4862 214.063ZM35.4375 220.468C34.0614 221.029 32.6702 221.508 31.3092 222.094C32.3602 220.468 33.3431 218.842 34.5453 217.347C35.112 216.618 35.7233 215.931 36.3751 215.29C37.4033 214.323 41.4333 212.299 40.768 216.29C40.4277 218.517 37.0933 219.801 35.4602 220.468H35.4375Z" fill="#263238"/>
<path d="M34.4924 143.176C35.2107 152.694 55.6252 194.384 55.6252 194.384L23.4912 211.706C23.4912 211.706 -1.28596 164.748 0.0523251 143.615C1.19403 125.684 30.0692 103.087 47.8299 81.0265H71.7678C64.2068 106.037 36.5036 133.649 34.568 142.078C34.4961 142.464 34.4808 142.859 34.5226 143.249L34.4924 143.176Z" fill="#37474F"/>
<path d="M23.4307 204.78C28.7234 201.748 27.1431 202.545 32.4358 199.578C35.0292 198.123 48.034 190.8 50.6576 189.873C50.6711 189.869 50.6853 189.87 50.6979 189.877C50.7105 189.883 50.7208 189.893 50.727 189.907C50.7332 189.92 50.7349 189.935 50.732 189.95C50.729 189.964 50.7214 189.977 50.7106 189.987C48.4423 191.726 35.3241 198.757 32.7156 200.155C27.37 203.016 28.8746 202.139 23.5063 204.935C23.4968 204.943 23.4856 204.95 23.4736 204.953C23.4615 204.956 23.4489 204.957 23.4367 204.954C23.4245 204.952 23.4129 204.946 23.4029 204.938C23.3929 204.93 23.3847 204.92 23.3789 204.908C23.3731 204.896 23.3698 204.883 23.3694 204.87C23.3689 204.856 23.3713 204.843 23.3762 204.831C23.3812 204.819 23.3887 204.808 23.3981 204.799C23.4076 204.79 23.4187 204.784 23.4307 204.78Z" fill="#263238"/>
<path d="M68.9248 84.9119C61.3296 98.7255 52.734 111.874 43.2177 124.237C40.8889 127.244 38.4845 130.17 36.0726 133.105C34.0311 135.543 31.967 138.331 31.5814 141.729C31.1429 145.517 32.6777 149.199 33.9102 152.645C35.2711 156.449 36.6472 160.245 38.0838 164.025C39.6413 168.089 41.2669 172.153 43.0816 176.063C44.004 178.079 44.9718 180.07 45.985 182.037C46.489 183.018 47.0107 183.993 47.5501 184.963C47.8147 185.451 49.6898 188.776 49.962 189.263C50.0527 189.418 50.2796 189.605 50.0527 189.198C49.5386 188.288 47.4442 184.516 46.9603 183.59C45.055 179.932 43.3538 176.169 41.7433 172.348C40.1328 168.528 38.5979 164.561 37.1387 160.619C35.6794 156.677 34.1899 152.808 32.9424 148.866C32.2125 146.848 31.853 144.698 31.8838 142.534C32.0383 140.444 32.7264 138.442 33.8724 136.746C35.9289 133.495 38.6811 130.666 41.0552 127.667C45.9698 121.441 50.64 115.003 55.0656 108.354C60.0976 100.833 64.7614 93.0358 69.0382 84.9931C69.0534 84.9037 68.9626 84.855 68.9248 84.9119Z" fill="#263238"/>
<path d="M41.6601 300.052C43.4974 300.556 94.8059 296.549 96.6735 295.07C97.3842 294.509 97.2783 286.446 96.8927 276.7C96.8096 274.594 96.7113 272.424 96.5979 270.197C95.8947 255.875 94.8361 240.699 94.8361 240.699L60.5095 243.276L63.2163 272.701L63.8061 279.163C63.8061 279.163 44.7979 290.136 42.9152 292.005C41.0326 293.875 39.8228 299.516 41.6601 300.052Z" fill="#F7A9A0"/>
<path d="M41.6601 300.052C43.4974 300.556 94.8059 296.549 96.6735 295.07C97.5354 294.387 97.2027 282.617 96.5979 270.213L63.1861 272.684L63.7759 279.146C63.7759 279.146 44.7677 290.12 42.885 291.989C41.0023 293.859 39.8228 299.516 41.6601 300.052Z" fill="white"/>
<path d="M41.6601 300.052C43.4974 300.556 94.8059 296.549 96.6735 295.07C97.3842 294.509 97.2783 286.446 96.8927 276.7L63.8061 279.138C63.8061 279.138 44.7979 290.111 42.9152 291.981C41.0326 293.851 39.8228 299.516 41.6601 300.052Z" fill="#FFB347"/>
<path d="M35.1324 155.837C43.714 154.942 78.4263 152.187 86.9777 152C87.0457 152 87.0457 152.049 86.9777 152.057C78.4868 153.146 43.7594 155.601 35.1399 155.991C34.9585 155.999 34.9509 155.853 35.1324 155.837Z" fill="#263238"/>
<path d="M46.0757 289.746C47.0292 289.644 47.992 289.756 48.9031 290.075C49.8142 290.394 50.6537 290.913 51.3684 291.599C52.6706 292.821 53.4833 294.536 53.6367 296.387C53.6367 296.443 53.5459 296.452 53.5384 296.387C53.1145 294.585 52.1605 292.978 50.8185 291.806C49.4765 290.635 47.8183 289.96 46.0909 289.884C46.0738 289.886 46.0567 289.881 46.0432 289.869C46.0297 289.858 46.021 289.841 46.019 289.823C46.017 289.805 46.0219 289.786 46.0325 289.772C46.0431 289.757 46.0587 289.748 46.0757 289.746Z" fill="#263238"/>
<path d="M60.5322 280.325C63.9724 280.008 68.0477 281 70.3614 283.861C70.4521 283.966 70.3085 284.105 70.2026 284.056C67.0768 282.6 63.8144 281.51 60.4717 280.805C60.4125 280.796 60.359 280.762 60.3228 280.711C60.2867 280.66 60.2709 280.596 60.2789 280.532C60.2869 280.469 60.3181 280.411 60.3656 280.372C60.4131 280.333 60.473 280.316 60.5322 280.325Z" fill="#263238"/>
<path d="M57.9464 281.642C61.3866 281.325 65.4695 282.316 67.8134 285.178C67.9041 285.291 67.7529 285.43 67.647 285.381C64.5222 283.93 61.2628 282.84 57.9237 282.129C57.8635 282.126 57.807 282.097 57.7666 282.049C57.7262 282.001 57.7052 281.938 57.7082 281.873C57.7112 281.809 57.738 281.748 57.7827 281.705C57.8273 281.661 57.8862 281.639 57.9464 281.642Z" fill="#263238"/>
<path d="M55.3681 282.983C58.8083 282.666 62.8836 283.658 65.1973 286.519C65.288 286.624 65.1444 286.763 65.0385 286.714C61.9127 285.258 58.6503 284.168 55.3076 283.463C55.2484 283.454 55.1949 283.42 55.1587 283.369C55.1226 283.318 55.1068 283.254 55.1148 283.19C55.1228 283.127 55.154 283.069 55.2015 283.03C55.249 282.991 55.3089 282.974 55.3681 282.983Z" fill="#263238"/>
<path d="M52.7823 284.292C56.2225 283.966 60.3054 284.966 62.6493 287.819C62.74 287.933 62.5888 288.071 62.483 288.023C59.3559 286.571 56.0938 285.481 52.752 284.771C52.7227 284.769 52.6941 284.761 52.6678 284.747C52.6415 284.733 52.618 284.713 52.5987 284.689C52.5794 284.666 52.5647 284.638 52.5553 284.608C52.5459 284.578 52.5421 284.547 52.5441 284.515C52.5461 284.484 52.5538 284.453 52.5669 284.425C52.5799 284.396 52.598 284.371 52.6201 284.35C52.6422 284.33 52.6679 284.314 52.6958 284.304C52.7236 284.294 52.753 284.289 52.7823 284.292Z" fill="#263238"/>
<path d="M83.7038 283.01C87.5675 282.717 87.9909 289.171 84.1197 289.464C80.2485 289.756 79.8326 283.294 83.7038 283.01Z" fill="#263238"/>
<path d="M56.782 276.139C58.8159 278.577 61.7571 279.975 64.3429 281.609C64.4034 281.639 64.4695 281.653 64.536 281.651C64.6025 281.649 64.6675 281.63 64.7261 281.596C64.7847 281.562 64.8352 281.514 64.8737 281.456C64.9121 281.397 64.9375 281.33 64.9478 281.26C64.9617 281.261 64.9758 281.259 64.9889 281.254C65.0019 281.249 65.0137 281.24 65.0232 281.229C65.0327 281.218 65.0398 281.205 65.0437 281.19C65.0477 281.176 65.0485 281.161 65.0461 281.146C64.5583 277.771 63.2547 274.592 61.2656 271.928C60.0786 270.4 57.7801 269.051 56.1469 270.742C54.5137 272.432 55.6252 274.725 56.782 276.139ZM56.4191 273.091C56.4871 269.027 60.0786 271.863 60.9103 273.026C61.4323 273.791 61.9071 274.592 62.3317 275.424C63.239 277.139 63.9044 278.968 64.6454 280.756C63.4281 279.878 62.1503 279.13 60.8649 278.277C59.4057 277.293 56.3813 275.326 56.4191 273.091Z" fill="#263238"/>
<path d="M77.0982 277.83C76.6597 275.391 74.0738 275.115 72.2743 275.627C69.2238 276.579 66.4581 278.372 64.2522 280.829C64.2412 280.838 64.2323 280.85 64.2262 280.863C64.2201 280.877 64.2169 280.891 64.2169 280.906C64.2169 280.921 64.2201 280.936 64.2262 280.949C64.2323 280.963 64.2412 280.974 64.2522 280.983C64.2215 281.047 64.2051 281.117 64.2044 281.189C64.2037 281.26 64.2187 281.331 64.2482 281.395C64.2776 281.459 64.3207 281.515 64.374 281.558C64.4272 281.601 64.4891 281.629 64.5546 281.642C67.5336 281.902 70.6865 282.577 73.6277 281.853C75.4046 281.422 77.5065 280.097 77.0982 277.83ZM69.1668 281.081C67.7 280.983 66.2483 280.821 64.7739 280.788C66.3466 279.78 67.8663 278.699 69.5222 277.862C70.3166 277.446 71.1348 277.085 71.9719 276.781C73.2799 276.35 77.7258 276.253 75.6087 279.61C74.4443 281.43 70.9209 281.154 69.1668 281.048V281.081Z" fill="#263238"/>
<path d="M59.2091 269.108L98.4201 266.669C98.4201 266.669 82.716 119.547 85.3623 113.995C91.3581 101.404 91.9025 95.9176 85.3018 81.0021H55.4437C55.4437 81.0021 57.1298 96.706 57.0164 97.3807C49.5764 141.615 59.2091 269.108 59.2091 269.108Z" fill="#37474F"/>
<path d="M60.7363 261.687C68.5165 260.671 92.9005 259.248 95.5166 259.533C95.5327 259.533 95.548 259.54 95.5594 259.552C95.5707 259.564 95.5771 259.581 95.5771 259.598C95.5771 259.615 95.5707 259.632 95.5594 259.644C95.548 259.656 95.5327 259.663 95.5166 259.663C92.9686 260.313 80.1453 261.288 60.7363 261.857C60.7194 261.852 60.7046 261.84 60.6941 261.825C60.6836 261.81 60.678 261.791 60.678 261.772C60.678 261.753 60.6836 261.734 60.6941 261.719C60.7046 261.704 60.7194 261.692 60.7363 261.687Z" fill="#263238"/>
<path d="M54.3701 82.6928C54.8464 86.8058 54.9976 93.8693 57.2281 93.8693C59.4586 93.8693 58.6949 85.2614 58.6722 83.3024C58.6722 81.5061 59.2317 81.6768 59.4283 83.8389C59.8442 89.5856 59.9274 94.6659 57.0693 94.5683C54.2113 94.4708 53.8559 85.554 53.8408 83.5138C53.7879 82.4327 54.2188 81.4004 54.3701 82.6928Z" fill="#263238"/>
<path d="M57.092 94.1456C57.2913 95.5906 57.3269 97.0563 57.1978 98.5105C57.16 98.6243 56.7291 98.5593 56.6837 98.4618C56.3888 97.8765 56.4795 95.0397 56.3737 94.2838C56.3566 94.1814 56.3781 94.0759 56.4334 93.9906C56.4887 93.9052 56.5733 93.8469 56.6686 93.8286C56.7638 93.8103 56.862 93.8334 56.9414 93.8928C57.0208 93.9523 57.0749 94.0432 57.092 94.1456Z" fill="#263238"/>
<path d="M56.3813 99.2827C55.6252 102.949 54.9145 109.906 55.2245 111.719C55.2245 111.882 55.4815 111.922 55.5042 111.719C55.7235 109.768 56.6686 100.339 56.7669 99.3965C56.8652 98.4536 56.593 98.2586 56.3813 99.2827Z" fill="#263238"/>
<path d="M62.3318 101.843C61.8686 101.399 61.3759 100.991 60.8574 100.624C60.3432 100.226 59.8291 99.8111 59.2923 99.4778C58.2111 98.73 57.0845 98.0554 55.9503 97.397C54.8162 96.7386 53.682 96.1858 52.5479 95.6331C51.4138 95.0804 50.0679 94.6252 48.8657 94.0481C48.7901 94.0481 48.7372 94.1213 48.8053 94.1619C49.9545 94.7715 51.0206 95.5518 52.1396 96.2265C53.2586 96.9011 54.4079 97.6002 55.4967 98.2748C56.5854 98.9495 57.6818 99.6241 58.7857 100.274C59.3603 100.616 59.9425 100.949 60.5247 101.274C61.0554 101.608 61.606 101.904 62.173 102.16C62.3393 102.225 62.43 101.965 62.3318 101.843Z" fill="#263238"/>
<path d="M90.4735 239.96C89.7275 234.14 89.0218 228.315 88.3564 222.484C87.0257 210.828 85.8638 199.147 84.8708 187.443C83.8778 175.738 83.0487 164.028 82.3833 152.312C82.0506 146.443 81.7583 140.577 81.5062 134.714C81.2567 128.894 80.8862 121.115 80.924 115.287C80.924 112.329 85.6799 109.809 86.2999 101.144C86.7665 96.2136 86.1874 91.2335 84.6062 86.5781C84.2173 85.4445 83.7654 84.3371 83.2528 83.2618C83.215 83.1886 83.1167 83.2618 83.1545 83.3268C85.3092 88.0638 86.3478 93.2975 86.1789 98.5674C86.1619 101.217 85.7693 103.848 85.0145 106.371C83.8577 109.898 80.7804 112.873 80.6896 114.735C80.5611 117.498 80.6216 119.888 80.6896 122.652C80.7577 125.415 80.8787 128.398 80.9845 131.276C81.2164 137.144 81.4836 143.008 81.786 148.866C82.406 160.532 83.1923 172.183 84.145 183.817C85.0977 195.452 86.2217 207.102 87.5172 218.769C88.8076 230.376 90.2694 241.959 91.9025 253.518C92.0915 254.851 92.2957 256.168 92.5376 257.484C92.5376 257.623 92.7871 257.582 92.772 257.436C92.152 251.567 91.2145 245.771 90.4735 239.96Z" fill="#263238"/>
<path d="M47.7391 1.4583C42.3482 5.09979 39.4599 12.5453 39.4599 12.5453C39.4599 12.5453 33.5926 19.3406 33.8875 23.86C33.9482 25.139 34.2963 26.3831 34.902 27.4859C35.5077 28.5886 36.353 29.5171 37.3655 30.1919L37.4411 27.7534C37.4411 27.7534 38.1972 31.1104 42.7338 33.4433C47.2703 35.7761 53.7954 35.7517 57.4247 34.7682C59.5727 34.1956 61.5468 33.0365 63.1558 31.4031L61.2202 34.5162C62.8012 34.7062 64.4012 34.4724 65.8776 33.8355C67.354 33.1987 68.6606 32.1787 69.6809 30.8666C73.5067 26.2741 67.2539 16.8208 66.9287 15.0407C66.6036 13.2606 68.2444 1.22257 56.2225 0.40974C56.1922 0.450382 51.4515 -1.05336 47.7391 1.4583Z" fill="#263238"/>
<path d="M35.755 29.4848C34.5929 28.3742 33.775 26.9076 33.4112 25.2824C32.9721 23.674 33.0602 21.9524 33.6607 20.4054C34.48 18.6286 35.5918 17.0259 36.9421 15.6747C38.2426 14.1954 39.6489 12.8217 40.9267 11.318C40.9948 11.2367 40.8814 11.1229 40.7982 11.1879C39.4962 12.2369 38.2516 13.366 37.0706 14.5693C35.8878 15.6424 34.8269 16.862 33.9102 18.2027C33.0627 19.4372 32.5616 20.9067 32.466 22.4375C32.4389 23.6968 32.6985 24.9441 33.2221 26.0709C33.8922 27.3371 34.7132 28.5039 35.6643 29.5417C35.7248 29.6392 35.8155 29.5335 35.755 29.4848Z" fill="#263238"/>
<path d="M71.7602 25.7213C71.2838 21.0232 68.2141 17.3654 66.7926 13.0249C66.0365 10.6758 65.5678 8.1479 64.3807 6.00202C64.3807 5.94512 64.2522 6.00202 64.2824 6.05892C65.2275 7.98533 65.5678 10.1231 66.1122 12.1714C66.7104 14.2441 67.5033 16.2458 68.4787 18.1457C70.1573 21.6734 72.176 25.8433 70.747 29.8587C70.1043 31.7119 68.6073 33.5814 66.6565 33.7359C66.5809 33.7359 66.5961 33.8741 66.6565 33.8578C67.4429 33.7239 68.1955 33.4183 68.8678 32.9598C69.5401 32.5012 70.1179 31.8995 70.5656 31.1917C71.5661 29.5836 71.9905 27.6401 71.7602 25.7213Z" fill="#263238"/>
<path d="M71.6846 26.9406C72.1574 25.3186 72.1574 23.5799 71.6846 21.9579C71.0982 20.3937 70.2031 18.9849 69.0609 17.8287C67.8285 16.4388 66.5054 15.0895 65.9307 13.22C65.9307 13.1387 65.8022 13.22 65.8249 13.2687C66.717 16.3331 69.2273 18.2758 70.6336 21.0069C72.2365 24.1363 71.4426 27.9404 69.3331 30.5658C68.0132 32.1544 66.363 33.3854 64.5168 34.1585C64.479 34.1585 64.5168 34.2236 64.5168 34.2073C67.6546 32.9393 70.6941 30.5496 71.6846 26.9406Z" fill="#263238"/>
<path d="M55.9579 50.1958C54.4457 58.9256 47.4594 87.643 39.9287 91.2276C34.9838 93.5767 13.662 96.0233 9.04228 91.5039C7.03107 89.5287 6.59253 72.8088 9.50349 72.8088C12.4144 72.8088 29.6307 71.5082 31.5663 70.4109C33.5019 69.3136 45.2743 46.7981 50.1359 40.7832C58.5059 30.4195 56.7518 45.4895 55.9579 50.1958Z" fill="#F7A9A0"/>
<path d="M15.6052 70.2565L19.8015 94.6415C19.8015 94.6415 36.995 94.2269 43.5201 89.7157C51.4364 84.2453 57.5683 52.1384 58.2337 46.9526C59.3149 38.4422 57.4776 33.9472 53.6971 36.15C52.2228 36.9629 50.4686 38.8567 48.4801 41.913C46.4916 44.9693 34.8704 65.2169 30.8026 69.5493C28.5117 71.9147 15.6052 70.2565 15.6052 70.2565Z" fill="#455A64"/>
<path d="M15.6052 70.2483L19.809 94.6333C19.809 94.6333 22.6595 94.5683 26.4778 94.1781C32.0426 93.6173 39.6565 92.3818 43.5201 89.7076C51.4364 84.2372 57.5759 52.1303 58.2337 46.9444C58.9898 40.7913 58.2337 36.7271 56.351 35.7924C55.9132 35.621 55.4438 35.5634 54.9813 35.6241C54.5188 35.6848 54.0762 35.8623 53.6896 36.1419C52.2303 36.9547 50.4686 38.8486 48.4801 41.8967C46.4008 45.083 34.8704 65.2088 30.8026 69.533C28.5117 71.9228 15.6052 70.2483 15.6052 70.2483Z" fill="#EBEBEB"/>
<path d="M23.8088 93.1865C23.2871 89.5694 20.6559 74.8327 19.8847 71.687C19.8317 71.4676 19.6881 71.4513 19.7183 71.687C21.0339 82.579 22.9922 89.6832 23.6727 93.2027C23.6747 93.2221 23.6838 93.2399 23.698 93.2521C23.7121 93.2643 23.7302 93.2699 23.7483 93.2678C23.7663 93.2656 23.7828 93.2558 23.7942 93.2406C23.8055 93.2253 23.8108 93.2059 23.8088 93.1865Z" fill="#263238"/>
<path d="M58.2337 46.9363C57.5759 52.1222 51.4289 84.2291 43.5201 89.6994C41.5694 91.0487 38.6509 92.0323 35.5282 92.7557L54.2037 35.8574C54.5353 35.6799 54.8983 35.5801 55.2684 35.5647C55.6386 35.5493 56.0076 35.6186 56.351 35.768C58.2639 36.6946 59.02 40.7588 58.2337 46.9363Z" fill="#263238"/>
<path d="M88.5076 83.9933C87.0642 84.7948 85.5741 85.4953 84.0467 86.0905L83.2906 86.3587C79.0381 87.8674 74.6203 88.7719 70.1497 89.0492C56.7971 90.0083 44.4425 86.3018 43.4672 84.3835L45.6145 70.0614L45.7279 69.2486L46.0152 67.3059C46.0152 67.3059 42.9908 62.5996 43.0589 57.3812C43.0813 56.8178 43.1624 56.2588 43.3008 55.7149C43.3462 55.471 43.4142 55.2272 43.4898 54.959C44.6694 50.7972 48.1096 44.7335 50.9978 40.5556C51.9331 39.1483 52.9696 37.822 54.0978 36.5889C57.3112 33.3376 60.7061 32.7686 63.9724 33.9391C65.4639 34.5022 66.8588 35.3261 68.1007 36.3776C71.1357 39.0303 73.6669 42.2868 75.5557 45.969C77.7484 50.0332 79.9865 55.9262 81.975 61.8599C82.0506 62.0712 82.1111 62.2744 82.1791 62.4858C85.7933 73.2721 88.5076 83.9933 88.5076 83.9933Z" fill="#EBEBEB"/>
<path d="M49.1227 43.5143C48.2305 45.1399 47.2476 46.6518 46.3176 48.2206C46.6957 47.107 47.0737 45.9934 47.4745 44.8961C47.4745 44.8961 47.4745 44.8554 47.4745 44.8961C46.8155 46.2173 46.2811 47.606 45.8791 49.0415C45.181 50.2271 44.5595 51.4628 44.0191 52.7399C43.3451 54.2768 42.9206 55.9262 42.764 57.6169C42.667 59.3112 42.8908 61.0091 43.4218 62.6077C44.0477 64.4424 44.8298 66.211 45.7581 67.8911C45.8715 68.1187 46.1664 67.8911 46.0681 67.6879C44.7601 64.6886 43.316 61.5348 43.4445 58.1371C43.573 54.7395 45.0323 51.6345 46.4689 48.7652C47.2951 46.9858 48.2296 45.267 49.2664 43.6199C49.274 43.5143 49.1681 43.4411 49.1227 43.5143Z" fill="#263238"/>
<path d="M62.4905 35.7192C62.3166 36.532 58.6118 42.1568 54.9976 42.0268C53.8181 41.9861 53.7501 35.0608 53.7501 35.0608L53.6367 34.5487L52.0489 27.4039L59.8064 21.8767L60.933 21.1451C60.933 21.1451 61.243 23.1365 61.6135 25.6076C61.6135 25.7214 61.6134 25.8352 61.6664 25.9652C61.7193 26.0953 61.7117 26.2334 61.7269 26.3635C61.7874 26.7293 61.8478 27.1113 61.9008 27.4852C61.9537 27.8591 61.9839 28.0542 62.0142 28.3549C62.0444 28.6557 62.0822 28.9564 62.1276 29.2572C62.3835 31.4 62.5048 33.5589 62.4905 35.7192Z" fill="#F7A9A0"/>
<path d="M61.6135 25.6076C60.9673 27.631 59.919 29.479 58.5415 31.023C57.164 32.5671 55.4903 33.7702 53.6367 34.5487L52.0489 27.4039L59.8064 21.8767L60.933 21.1451C60.933 21.1451 61.243 23.1365 61.6135 25.6076Z" fill="#263238"/>
<path d="M42.3255 15.439C40.526 28.1761 47.4215 30.7772 49.9771 31.1917C52.2983 31.5737 60.2449 32.5329 63.2617 20.064C66.2785 7.59518 61.3337 2.65316 56.0712 1.4908C50.8088 0.328453 44.125 2.69379 42.3255 15.439Z" fill="#F7A9A0"/>
<path d="M44.3216 14.6343C44.6089 14.6343 44.866 14.5612 45.1457 14.5205C45.4393 14.5223 45.7255 14.4226 45.9623 14.236C46.0193 14.1554 46.0502 14.0569 46.0502 13.9556C46.0502 13.8543 46.0193 13.7558 45.9623 13.6752C45.839 13.5231 45.6797 13.4096 45.5014 13.3467C45.3231 13.2838 45.1323 13.2737 44.9491 13.3175C44.5635 13.3477 44.201 13.5266 43.9284 13.8215C43.8698 13.8966 43.8331 13.9887 43.8232 14.0862C43.8132 14.1836 43.8303 14.2821 43.8724 14.3691C43.9145 14.4561 43.9796 14.5277 44.0596 14.5749C44.1395 14.6222 44.2307 14.6428 44.3216 14.6343Z" fill="#263238"/>
<path d="M52.6008 14.9351C52.3319 14.8672 52.0669 14.7831 51.8069 14.6831C51.5186 14.6351 51.2529 14.4866 51.0508 14.2604C50.9987 14.175 50.9749 14.0733 50.9831 13.9716C50.9914 13.8698 51.0312 13.774 51.0961 13.6996C51.2426 13.5726 51.4178 13.4898 51.6038 13.4598C51.7899 13.4298 51.98 13.4536 52.1547 13.5289C52.5309 13.6191 52.8609 13.8605 53.0771 14.2035C53.1267 14.2838 53.1527 14.3783 53.1516 14.4748C53.1505 14.5712 53.1224 14.665 53.071 14.7439C53.0196 14.8229 52.9472 14.8834 52.8633 14.9175C52.7794 14.9516 52.6879 14.9577 52.6008 14.9351Z" fill="#263238"/>
<path d="M50.6576 17.2516C50.6576 17.2516 50.7181 17.3004 50.7181 17.3411C50.6047 18.2108 50.6123 19.2268 51.323 19.6007V19.6495C50.4232 19.4138 50.4232 18.0645 50.6576 17.2516Z" fill="#263238"/>
<path d="M51.4742 16.4226C52.7899 16.4226 52.6159 19.2919 51.3986 19.2593C50.1813 19.2268 50.3704 16.3738 51.4742 16.4226Z" fill="#263238"/>
<path d="M51.9807 16.6095C52.2 16.7883 52.4117 17.089 52.6839 17.1378C52.9561 17.1866 53.2661 16.9102 53.4929 16.642C53.4929 16.642 53.5383 16.642 53.5308 16.642C53.5308 17.1866 53.2812 17.7312 52.7368 17.7718C52.1925 17.8125 51.9127 17.3085 51.822 16.7558C51.7993 16.6826 51.89 16.5363 51.9807 16.6095Z" fill="#263238"/>
<path d="M45.8867 16.5932C45.8867 16.5932 45.8187 16.5932 45.8187 16.6664C45.8187 17.5442 45.6372 18.5522 44.8811 18.796V18.8448C45.796 18.7635 45.9926 17.4304 45.8867 16.5932Z" fill="#263238"/>
<path d="M45.2062 15.6341C43.8982 15.4471 43.6486 18.2677 44.8584 18.4465C46.0681 18.6253 46.3025 15.7966 45.2062 15.6341Z" fill="#263238"/>
<path d="M44.6391 15.7642C44.4198 15.8942 44.193 16.1462 43.9435 16.1381C43.694 16.1299 43.4672 15.7967 43.3159 15.4878H43.2706C43.2101 16.0243 43.3235 16.6014 43.7923 16.7558C44.2611 16.9102 44.5484 16.4713 44.7601 15.943C44.7903 15.8698 44.7298 15.7154 44.6391 15.7642Z" fill="#263238"/>
<path d="M49.9621 24.7297C49.7655 24.9329 49.5613 25.2093 49.2665 25.2337C48.9618 25.2166 48.6635 25.1337 48.3894 24.9898C48.3894 24.9898 48.344 24.9898 48.3894 25.0386C48.5024 25.2142 48.658 25.3533 48.8392 25.4407C49.0205 25.5281 49.2205 25.5605 49.4177 25.5344C49.585 25.4921 49.7365 25.3966 49.8525 25.2603C49.9685 25.124 50.0436 24.9532 50.0679 24.7704C50.0528 24.7216 49.9923 24.7053 49.9621 24.7297Z" fill="#263238"/>
<path d="M46.7865 21.2508C46.7865 21.2508 46.5218 22.5432 46.4765 23.1609C46.4765 23.2178 46.6126 23.2585 46.8091 23.291C47.2941 23.4266 47.8044 23.4164 48.2844 23.2616C48.7644 23.1068 49.1956 22.8133 49.5311 22.4131C49.5764 22.3562 49.5311 22.2912 49.4555 22.3237C48.6845 22.8009 47.7908 22.9977 46.9074 22.8846C46.9074 22.7058 47.4291 20.6818 47.3384 20.6737C46.8885 20.6783 46.441 20.7467 46.0077 20.8769C46.484 18.1701 47.3535 15.561 47.7921 12.8542C47.7916 12.8354 47.7856 12.8173 47.7749 12.8024C47.7643 12.7875 47.7496 12.7766 47.7328 12.7712C47.7161 12.7658 47.6982 12.7662 47.6817 12.7723C47.6652 12.7785 47.6509 12.7901 47.6408 12.8055C46.6187 15.5664 45.8588 18.4312 45.3726 21.3565C45.3348 21.7385 46.5521 21.3727 46.7865 21.2508Z" fill="#263238"/>
<path d="M63.1861 20.7631C62.4145 20.3573 61.7539 19.7434 61.2688 18.9812C60.7838 18.219 60.4909 17.3346 60.4188 16.4144C58.3186 15.4206 56.5042 13.8405 55.164 11.8382C55.2396 12.1064 55.8217 14.0328 56.1393 15.0001C48.5179 13.4476 46.174 7.16439 46.174 7.16439C44.7119 8.60445 43.5697 10.3796 42.8321 12.3584C42.8321 12.3584 42.7867 7.32696 45.2062 3.96183C45.9899 2.79328 47.0484 1.86965 48.2733 1.28549C49.4983 0.701338 50.8456 0.477649 52.1774 0.637339C54.0693 0.149201 56.0489 0.220928 57.906 0.8449C59.763 1.46887 61.4283 2.6218 62.7249 4.18129C67.6697 9.96866 63.1861 20.7631 63.1861 20.7631Z" fill="#263238"/>
<path d="M50.3779 13.6264C51.6012 14.3533 52.9188 14.8793 54.2869 15.187C52.1408 14.5409 50.2055 13.2627 48.6994 11.4968C48.0615 10.7594 47.5105 9.94038 47.0587 9.05826C46.5368 8.09561 46.1952 7.03251 46.053 5.92886C46.053 5.91161 46.0467 5.89507 46.0353 5.88288C46.024 5.87068 46.0086 5.86383 45.9926 5.86383C45.9765 5.86383 45.9611 5.87068 45.9498 5.88288C45.9384 5.89507 45.9321 5.91161 45.9321 5.92886C45.9654 7.04034 46.1672 8.13854 46.5294 9.18019C46.935 10.1887 47.509 11.1089 48.223 11.895C48.8593 12.5906 49.585 13.1846 50.3779 13.6589" fill="#263238"/>
<path d="M61.2354 20.7306C61.2354 20.7306 64.0934 16.894 65.7266 18.0157C67.3597 19.1374 65.0461 24.8191 63.0122 25.4775C62.7559 25.5812 62.4828 25.6281 62.2093 25.6155C61.9357 25.603 61.6674 25.5311 61.4203 25.4044C61.1732 25.2776 60.9524 25.0986 60.7712 24.8779C60.59 24.6572 60.4522 24.3994 60.3659 24.1201L61.2354 20.7306Z" fill="#F7A9A0"/>
<path d="M65.0234 19.6251V19.682C63.5944 20.1941 62.7551 21.5353 62.1729 22.9334C62.263 22.7884 62.3814 22.6662 62.5197 22.5753C62.6581 22.4844 62.8132 22.4269 62.9743 22.4068C63.1354 22.3867 63.2986 22.4045 63.4527 22.4589C63.6068 22.5133 63.748 22.6031 63.8666 22.722C63.8666 22.722 63.8666 22.8114 63.8212 22.8033C63.5817 22.7002 63.3181 22.6801 63.0674 22.7456C62.8167 22.8112 62.5912 22.9592 62.4224 23.1691C62.1326 23.5206 61.8791 23.9049 61.6663 24.3152C61.5907 24.4452 61.3715 24.3152 61.432 24.2095C61.5605 22.2668 63.1029 19.6901 65.0234 19.6251Z" fill="#263238"/>
<path d="M74.4216 43.5956C81.2264 54.1624 88.3337 69.5493 88.9764 81.7255C89.2864 87.6755 79.9033 93.4872 76.3572 91.8291C68.0024 87.9275 56.2376 78.6368 51.512 72.3861C49.841 70.1833 66.2558 54.1949 67.6016 56.8691C68.9475 59.5433 69.7716 61.1121 71.0646 62.1119C71.6846 62.5996 68.6451 56.2514 66.4297 45.0993C63.3978 29.8668 71.9567 39.7752 74.4216 43.5956Z" fill="#F7A9A0"/>
<path d="M53.2359 31.2324C53.2359 31.2324 55.7689 27.5909 53.3116 25.9327C50.8543 24.2745 48.9111 28.3224 48.9111 28.3224L53.2359 31.2324Z" fill="#DD6A57"/>
<path d="M33.1835 55.2836L37.5073 58.1984L53.3213 31.0865L48.9974 28.1717L33.1835 55.2836Z" fill="#FFB347"/>
<path d="M48.0854 28.8533L53.1395 32.2604L53.7662 31.1861L48.712 27.7791L48.0854 28.8533Z" fill="#37474F"/>
<path d="M47.39 30.0428L52.4442 33.4498L53.0748 32.3687L48.0207 28.9616L47.39 30.0428Z" fill="#37474F"/>
<path d="M33.1844 55.276L32.8593 59.7221L32.7458 61.1853L33.9329 60.4456L37.5168 58.194L37.4714 57.2267L36.6473 57.6088L36.6019 56.6415L35.7778 57.0235V56.0644L34.9461 56.4383L34.9083 55.4792L34.0766 55.8612V54.8939L33.1844 55.276Z" fill="white"/>
<path d="M32.8593 59.714L32.7458 61.1852L33.9329 60.4456L32.8593 59.714Z" fill="#37474F"/>
<path d="M41.2594 35.9956C39.8228 38.3122 45.4255 41.6285 45.4255 41.6285C44.3204 41.6304 43.2507 42.0473 42.4011 42.8071C40.9494 44.2377 42.4011 47.3102 42.4011 47.3102C41.249 47.5714 40.1957 48.197 39.3768 49.1066C38.1141 50.6266 39.1651 53.9429 39.1651 53.9429C38.2259 54.8119 37.6087 56.0149 37.426 57.3324C37.0707 60.8764 41.2897 63.9489 43.558 66.4037C45.985 69.0291 50.6425 71.4432 52.4874 73.3534L68.2368 58.2591C68.2368 58.2591 62.5132 44.254 57.8027 40.6206C55.1489 38.5966 43.437 32.4598 41.2594 35.9956Z" fill="#F7A9A0"/>
<path d="M45.5086 41.5716C48.8657 42.6933 51.9732 44.6685 54.9522 46.6112C55.0203 46.6599 54.9522 46.7656 54.8917 46.725C51.9505 44.7498 48.4423 43.5793 45.4406 41.7423C45.4261 41.7287 45.416 41.7106 45.4117 41.6905C45.4074 41.6703 45.4092 41.6493 45.4167 41.6303C45.4243 41.6113 45.4373 41.5954 45.4538 41.5849C45.4703 41.5743 45.4895 41.5697 45.5086 41.5716Z" fill="#263238"/>
<path d="M42.5826 47.1232C43.3263 47.4556 44.0255 47.8929 44.6618 48.4237C45.365 48.9358 46.0606 49.4642 46.7486 50.0006C48.1247 51.0844 49.4756 52.1953 50.8013 53.3333C50.8542 53.3902 50.8013 53.4958 50.7332 53.4471C49.3572 52.3741 47.9735 51.3337 46.5596 50.3258L44.4199 48.8302C43.7188 48.4122 43.0622 47.9134 42.4616 47.3427C42.4408 47.3226 42.4271 47.2954 42.4228 47.2656C42.4186 47.2359 42.424 47.2055 42.4383 47.1796C42.4526 47.1537 42.4748 47.1339 42.5011 47.1237C42.5274 47.1134 42.5562 47.1132 42.5826 47.1232Z" fill="#263238"/>
<path d="M39.1802 53.9917C39.8437 54.3038 40.4544 54.7323 40.9872 55.2597C41.5997 55.7637 42.2197 56.2676 42.8472 56.7635C44.0948 57.7551 45.3348 58.7468 46.6277 59.6978C46.6957 59.7466 46.6277 59.8522 46.5672 59.8034C45.2667 58.8524 43.9511 57.9177 42.6582 56.9504C42.0231 56.479 41.3879 55.9994 40.7528 55.5117C40.1411 55.1316 39.596 54.6391 39.1424 54.0567C39.14 54.0498 39.1392 54.0424 39.1399 54.035C39.1406 54.0277 39.1429 54.0206 39.1466 54.0143C39.1502 54.0081 39.1551 54.0028 39.1609 53.9989C39.1668 53.9949 39.1733 53.9925 39.1802 53.9917Z" fill="#263238"/>
<path d="M58.6874 41.4415C57.3761 39.8339 55.6365 38.6987 53.7047 38.1902C53.6215 38.1902 53.6215 38.1902 53.7047 38.2471C55.4772 39.1004 57.1414 40.193 58.6571 41.4984C58.6571 41.4984 58.71 41.4659 58.6874 41.4415Z" fill="#263238"/>
<path d="M50.824 75.6293L67.8437 56.1213L70.7319 61.2747C70.7319 61.2747 67.1254 51.2606 65.8702 44.9042C64.6151 38.5479 64.5168 31.086 72.3953 40.3198C80.1226 49.3992 90.1333 74.5076 89.8838 81.5305C89.6343 88.5533 81.4836 93.154 77.2797 92.5281C73.0758 91.9022 50.824 75.6293 50.824 75.6293Z" fill="#EBEBEB"/>
<path d="M55.5118 77.4582C57.8935 74.8408 67.269 63.7213 69.1215 61.2015C69.2576 61.0308 69.1819 60.9008 69.0232 61.0633C61.7117 68.7365 57.6137 74.6864 55.4135 77.385C55.3681 77.4256 55.4513 77.5313 55.5118 77.4582Z" fill="#263238"/>
<path d="M84.0694 79.7747C83.0487 78.0353 81.8767 76.3771 80.7577 74.7027C79.6387 73.0282 78.4894 71.3457 77.3175 69.7037C76.1455 68.0618 74.8753 66.4524 73.6202 64.8755C73.0002 64.0627 71.7829 62.5102 71.1478 61.7136C70.5126 60.917 70.4673 61.1121 71.0646 61.9818C71.6619 62.8516 72.8036 64.4203 73.3782 65.2332C74.4973 66.8588 75.6012 68.5333 76.758 70.1508C77.9148 71.7683 79.1245 73.3615 80.3116 74.9628C81.4987 76.5641 82.6782 78.2629 83.956 79.8398C84.0089 79.8967 84.1148 79.8398 84.0694 79.7747Z" fill="#263238"/>
<path d="M69.0534 55.5605C68.3654 53.6503 67.5412 51.7645 67.0119 49.7975C67.0076 49.785 66.9999 49.7743 66.9898 49.7667C66.9796 49.7591 66.9676 49.7551 66.9552 49.7551C66.9429 49.7551 66.9308 49.7591 66.9207 49.7667C66.9106 49.7743 66.9028 49.785 66.8985 49.7975C67.2993 51.0899 67.6546 52.4067 67.9949 53.7072C67.9595 53.6576 67.9267 53.6061 67.8966 53.5528C67.5941 53.0569 67.3144 52.553 67.0271 52.0409C66.9892 51.9677 66.891 52.0409 66.9288 52.1059C67.1934 52.6343 67.4505 53.1545 67.6849 53.6828C67.8598 54.1185 68.0778 54.5327 68.3351 54.9183C68.4183 55.2028 68.5014 55.4873 68.5922 55.7311C69.2259 57.6552 69.9838 59.5292 70.8605 61.3397C70.9134 61.4454 71.0797 61.3397 71.0495 61.2421C70.4446 59.3808 69.7414 57.4625 69.0534 55.5605Z" fill="#263238"/>
<path d="M67.9721 56.0563C67.9116 55.9588 67.4958 56.4627 67.2992 56.7309C67.2614 56.7797 67.2992 56.796 67.3597 56.7309C67.5093 56.6319 67.6532 56.5234 67.7907 56.4058C68.2368 57.2837 70.6865 61.3803 70.8529 61.551C71.0192 61.7217 70.9965 61.551 70.9587 61.4454C70.8075 61.0064 68.5165 56.9504 67.9721 56.0563Z" fill="#263238"/>
<path d="M71.3595 89.5287C66.1122 85.7328 60.7741 82.0751 55.3152 78.6287C53.803 77.6858 52.4042 76.6616 50.9298 75.6699C51.0886 75.548 52.442 73.8492 52.5101 73.7923L52.4647 73.7435C52.3059 73.898 50.5291 75.5724 50.4081 75.7675C50.2871 75.9626 55.8898 79.6284 58.521 81.4573C61.1522 83.2862 63.9044 85.0338 66.6263 86.757C68.1738 87.7378 69.7339 88.6942 71.3065 89.6263C71.367 89.6913 71.4199 89.5856 71.3595 89.5287Z" fill="#263238"/>
<path d="M21.7295 99.2746L48.533 98.8519L35.5207 62.0793L8.70961 62.4939L21.7295 99.2746Z" fill="#EBEBEB"/>
<path d="M19.8922 99.299L46.7033 98.8844L33.6834 62.1038L6.87988 62.5264L19.8922 99.299Z" fill="#FFB347"/>
<path d="M30.8404 62.1525C31.0323 62.7932 31.4504 63.3273 32.0048 63.64C32.2619 63.7863 32.3299 63.4205 32.0728 63.2905C31.7307 63.0748 31.4648 62.7432 31.3168 62.3476C31.2874 62.2827 31.2646 62.2145 31.2487 62.1444C31.1761 61.92 31.1579 61.6794 31.1958 61.4454C31.222 61.3449 31.2745 61.2546 31.347 61.1853H31.4302C31.4918 61.1656 31.5575 61.1656 31.6192 61.1853C31.7363 61.2249 31.8427 61.2947 31.9292 61.3885C32.0787 61.5713 32.2104 61.7702 32.3223 61.9818V62.0306C32.3378 62.0532 32.3505 62.0777 32.3602 62.1037C32.3634 62.1198 32.3634 62.1365 32.3602 62.1525H32.7382C32.6472 61.9013 32.5224 61.6658 32.3677 61.4535C32.252 61.2645 32.0994 61.1048 31.9205 60.9855C31.7416 60.8662 31.5408 60.7901 31.3319 60.7626C31.1798 60.7622 31.0333 60.8243 30.9223 60.9361C30.8113 61.0478 30.7442 61.2009 30.7345 61.3641C30.7085 61.6323 30.7448 61.9032 30.8404 62.1525Z" fill="#455A64"/>
<path d="M28.7385 62.185C28.9307 62.828 29.3521 63.3629 29.9104 63.6725C30.1675 63.8188 30.228 63.453 29.9785 63.323C29.6129 63.1198 29.3243 62.7866 29.1619 62.3801C29.1383 62.3136 29.1182 62.2458 29.1014 62.1769C29.025 61.9534 29.0067 61.7117 29.0485 61.4779C29.069 61.3768 29.1194 61.2855 29.1922 61.2177H29.2451C29.3041 61.1978 29.3675 61.1978 29.4266 61.2177C29.5464 61.2562 29.6555 61.326 29.7441 61.421C29.85 61.5349 29.9416 61.6634 30.0163 61.803C30.0617 61.868 30.0919 61.9412 30.1373 62.0143V62.0631C30.1401 62.0874 30.1401 62.112 30.1373 62.1363C30.1373 62.1363 30.1373 62.1363 30.1373 62.185H30.5153C30.4214 61.9353 30.2967 61.7002 30.1448 61.486C30.0275 61.2968 29.8736 61.137 29.6935 61.0178C29.5134 60.8985 29.3114 60.8225 29.1014 60.7951C28.9496 60.7928 28.8029 60.8545 28.6927 60.9668C28.5825 61.0792 28.5176 61.2334 28.5117 61.3966C28.5268 61.6753 28.6046 61.9458 28.7385 62.185Z" fill="#455A64"/>
<path d="M26.6441 62.2175C26.836 62.8582 27.2541 63.3924 27.8085 63.705C28.0656 63.8513 28.1336 63.4856 27.8766 63.3555C27.5344 63.1398 27.2685 62.8082 27.1205 62.4126C27.0911 62.3477 27.0683 62.2796 27.0524 62.2094C26.9798 61.985 26.9616 61.7444 26.9995 61.5104C27.0257 61.4099 27.0782 61.3196 27.1507 61.2503H27.2036C27.2653 61.2306 27.331 61.2306 27.3927 61.2503C27.5086 61.2929 27.6144 61.3623 27.7027 61.4535C27.8522 61.6364 27.9839 61.8352 28.0958 62.0469V62.0956C28.1112 62.1182 28.124 62.1428 28.1336 62.1688C28.1336 62.1688 28.1336 62.1688 28.1336 62.2175H28.5117C28.4207 61.9663 28.2958 61.7308 28.1412 61.5185C28.0254 61.3295 27.8729 61.1698 27.694 61.0505C27.5151 60.9312 27.3143 60.8552 27.1053 60.8276C26.9533 60.8273 26.8068 60.8893 26.6958 61.0011C26.5848 61.1129 26.5177 61.2659 26.508 61.4291C26.4914 61.7 26.5382 61.9711 26.6441 62.2175Z" fill="#455A64"/>
<path d="M24.5422 62.2501C24.7344 62.893 25.1558 63.4279 25.7141 63.7375C25.9712 63.8839 26.0317 63.5181 25.7822 63.388C25.4393 63.1733 25.1731 62.8414 25.0261 62.4451C25.0025 62.3786 24.9823 62.3108 24.9656 62.2419C24.8891 62.0184 24.8708 61.7767 24.9127 61.5429C24.9332 61.4418 24.9836 61.3506 25.0563 61.2828H25.1093C25.1683 61.2628 25.2317 61.2628 25.2907 61.2828C25.409 61.325 25.5173 61.3944 25.6083 61.486C25.7142 61.6 25.8057 61.7284 25.8805 61.868C25.9227 61.9356 25.9606 62.0062 25.9939 62.0794V62.1281C25.9967 62.1524 25.9967 62.177 25.9939 62.2013C25.9939 62.2013 25.9939 62.2013 25.9939 62.2501H26.3795C26.2855 62.0003 26.1609 61.7652 26.009 61.551C25.8917 61.3618 25.7378 61.2021 25.5577 61.0828C25.3776 60.9636 25.1756 60.8876 24.9656 60.8601C24.8138 60.8579 24.6671 60.9195 24.5569 61.0319C24.4467 61.1442 24.3818 61.2985 24.3759 61.4616C24.3724 61.7349 24.4294 62.0051 24.5422 62.2501Z" fill="#455A64"/>
<path d="M22.4478 62.2826C22.6396 62.9233 23.0578 63.4574 23.6122 63.7701C23.8693 63.9164 23.9373 63.5506 23.6802 63.4206C23.3381 63.2049 23.0722 62.8733 22.9241 62.4777C22.8948 62.4127 22.872 62.3446 22.8561 62.2745C22.7835 62.0501 22.7653 61.8095 22.8032 61.5754C22.8293 61.4749 22.8818 61.3846 22.9544 61.3153H23.0073C23.069 61.2957 23.1346 61.2957 23.1963 61.3153C23.3122 61.3579 23.418 61.4273 23.5063 61.5185C23.6558 61.7014 23.7876 61.9002 23.8995 62.1119V62.1607C23.9149 62.1832 23.9276 62.2078 23.9373 62.2338C23.9373 62.2338 23.9373 62.2338 23.9373 62.2826H24.3153C24.2243 62.0313 24.0995 61.7958 23.9449 61.5835C23.8291 61.3945 23.6765 61.2348 23.4977 61.1155C23.3188 60.9962 23.118 60.9202 22.909 60.8926C22.7569 60.8923 22.6105 60.9543 22.4995 61.0661C22.3885 61.1779 22.3213 61.331 22.3117 61.4941C22.2951 61.765 22.3419 62.0361 22.4478 62.2826Z" fill="#455A64"/>
<path d="M20.3459 62.3151C20.5381 62.9581 20.9595 63.493 21.5178 63.8026C21.7749 63.9489 21.8354 63.5831 21.5859 63.453C21.2273 63.2476 20.9465 62.9142 20.792 62.5102L20.7239 62.307C20.6535 62.0819 20.6379 61.8413 20.6786 61.6079C20.6991 61.5068 20.7495 61.4156 20.8222 61.3478H20.8676C20.9292 61.3277 20.995 61.3277 21.0566 61.3478C21.1749 61.3901 21.2832 61.4594 21.3742 61.551C21.4801 61.665 21.5716 61.7934 21.6464 61.9331C21.6886 62.0006 21.7265 62.0712 21.7598 62.1444V62.1932C21.7626 62.2174 21.7626 62.242 21.7598 62.2663C21.7598 62.2663 21.7598 62.2663 21.7598 62.3151H22.1454C22.0497 62.0663 21.9252 61.8314 21.7749 61.6161C21.6576 61.4268 21.5036 61.2671 21.3235 61.1478C21.1434 61.0286 20.9415 60.9526 20.7315 60.9251C20.5796 60.9229 20.433 60.9845 20.3228 61.0969C20.2126 61.2093 20.1476 61.3635 20.1417 61.5266C20.1499 61.8033 20.2199 62.0737 20.3459 62.3151Z" fill="#455A64"/>
<path d="M18.2515 62.3476C18.4433 62.9883 18.8614 63.5224 19.4158 63.8351C19.6729 63.9814 19.741 63.6156 19.4839 63.4856C19.1402 63.2718 18.8738 62.9396 18.7278 62.5427C18.6985 62.4777 18.6756 62.4096 18.6597 62.3395C18.5871 62.1151 18.5689 61.8745 18.6068 61.6404C18.633 61.5399 18.6855 61.4496 18.758 61.3803H18.811C18.8726 61.3607 18.9383 61.3607 19 61.3803C19.1159 61.4229 19.2217 61.4923 19.31 61.5835C19.4595 61.7664 19.5912 61.9652 19.7031 62.1769V62.2257C19.7186 62.2482 19.7313 62.2728 19.741 62.2988C19.741 62.2988 19.741 62.2988 19.741 62.3476H20.119C20.0263 62.0972 19.9016 61.8619 19.7485 61.6485C19.6328 61.4595 19.4802 61.2998 19.3013 61.1805C19.1225 61.0612 18.9216 60.9852 18.7127 60.9576C18.5606 60.9573 18.4141 61.0194 18.3031 61.1311C18.1921 61.2429 18.125 61.396 18.1154 61.5591C18.0988 61.83 18.1456 62.1011 18.2515 62.3476Z" fill="#455A64"/>
<path d="M16.1495 62.3801C16.3417 63.0231 16.7631 63.558 17.3215 63.8676C17.5785 64.0139 17.639 63.6481 17.3895 63.5181C17.033 63.3136 16.7527 62.9836 16.5956 62.5833L16.5276 62.372C16.4572 62.147 16.4415 61.9063 16.4822 61.673C16.5027 61.5719 16.5531 61.4806 16.6259 61.4129H16.6712C16.7328 61.3927 16.7986 61.3927 16.8602 61.4129C16.9809 61.4536 17.09 61.5263 17.1778 61.6242C17.2851 61.7338 17.3768 61.8598 17.45 61.9981C17.4922 62.0657 17.5301 62.1363 17.5634 62.2094V62.2582C17.5663 62.2825 17.5663 62.3071 17.5634 62.3313C17.5634 62.3313 17.5634 62.3314 17.5634 62.3801H17.949C17.8552 62.1278 17.7306 61.89 17.5785 61.673C17.4612 61.4837 17.3072 61.324 17.1271 61.2047C16.947 61.0855 16.7451 61.0095 16.5351 60.9821C16.3833 60.9798 16.2366 61.0414 16.1264 61.1538C16.0162 61.2662 15.9513 61.4204 15.9454 61.5835C15.9523 61.8629 16.0224 62.1363 16.1495 62.3801Z" fill="#455A64"/>
<path d="M14.0401 62.4126C14.2319 63.0533 14.65 63.5874 15.2044 63.9001C15.4615 64.0464 15.5296 63.6806 15.2725 63.5506C14.9309 63.3379 14.6648 63.0091 14.5164 62.6158C14.4859 62.5486 14.463 62.4776 14.4484 62.4045C14.3758 62.1801 14.3575 61.9395 14.3954 61.7055C14.42 61.6065 14.4729 61.5183 14.5467 61.4535H14.5996C14.6612 61.4338 14.7269 61.4338 14.7886 61.4535C14.9065 61.4955 15.013 61.5681 15.0986 61.6648C15.2058 61.7745 15.2976 61.9004 15.3708 62.0387C15.4155 62.1062 15.4559 62.1768 15.4918 62.2501V62.2988C15.4943 62.3231 15.4943 62.3477 15.4918 62.372C15.4918 62.372 15.4918 62.372 15.4918 62.4207H15.8698C15.7773 62.1678 15.6526 61.9298 15.4993 61.7136C15.3836 61.5246 15.231 61.3649 15.0521 61.2456C14.8733 61.1263 14.6724 61.0502 14.4635 61.0227C14.3114 61.0223 14.1649 61.0844 14.0539 61.1962C13.9429 61.3079 13.8758 61.461 13.8662 61.6242C13.8613 61.8986 13.9211 62.1698 14.0401 62.4126Z" fill="#455A64"/>
<path d="M11.9532 62.4451C12.1454 63.0881 12.5668 63.623 13.1252 63.9326C13.3822 64.0789 13.4427 63.7132 13.1932 63.5831C12.8367 63.3786 12.5564 63.0486 12.3993 62.6483L12.3313 62.4451C12.2612 62.2172 12.2456 61.9741 12.2859 61.738C12.3046 61.6384 12.3555 61.5492 12.4296 61.486H12.5278C12.5895 61.4659 12.6553 61.4659 12.7169 61.486C12.8375 61.5268 12.9467 61.5995 13.0344 61.6973C13.1417 61.807 13.2334 61.933 13.3066 62.0712C13.3489 62.1388 13.3867 62.2094 13.42 62.2826V62.3313C13.4229 62.3556 13.4229 62.3802 13.42 62.4045C13.42 62.4045 13.42 62.4045 13.42 62.4533H13.8056C13.7101 62.2018 13.5857 61.9643 13.4352 61.7461C13.3179 61.5569 13.1639 61.3972 12.9838 61.2779C12.8037 61.1587 12.6017 61.0827 12.3918 61.0552C12.2399 61.053 12.0932 61.1146 11.983 61.227C11.8729 61.3393 11.8079 61.4936 11.802 61.6567C11.7938 61.9287 11.8456 62.1988 11.9532 62.4451Z" fill="#455A64"/>
<path d="M9.85887 62.4777C10.0507 63.1183 10.4688 63.6525 11.0233 63.9651C11.2803 64.1115 11.3484 63.7457 11.0913 63.6156C10.8812 63.5031 10.6961 63.3432 10.5486 63.1468C10.4012 62.9504 10.2949 62.7222 10.2369 62.4777C10.1646 62.2504 10.1464 62.0073 10.184 61.7705C10.2053 61.67 10.2589 61.5808 10.3352 61.5185H10.3881C10.4498 61.4989 10.5155 61.4989 10.5772 61.5185C10.6951 61.5605 10.8015 61.6331 10.8871 61.7299C10.9944 61.8395 11.0861 61.9655 11.1594 62.1037C11.2041 62.1712 11.2445 62.2418 11.2803 62.3151V62.3639C11.2957 62.3864 11.3084 62.411 11.3181 62.437C11.3181 62.437 11.3181 62.437 11.3181 62.4858H11.6962C11.6037 62.2328 11.479 61.9948 11.3257 61.7786C11.21 61.5896 11.0574 61.4299 10.8785 61.3106C10.6996 61.1913 10.4988 61.1153 10.2898 61.0877C10.1378 61.0874 9.9913 61.1494 9.88031 61.2612C9.76931 61.373 9.70215 61.526 9.69253 61.6892C9.68533 61.9629 9.74255 62.2341 9.85887 62.4777Z" fill="#455A64"/>
<path d="M7.7569 62.5102C7.9491 63.1532 8.37051 63.6881 8.92884 63.9977C9.18591 64.144 9.24639 63.7782 8.99688 63.6481C8.64036 63.4437 8.36007 63.1136 8.20299 62.7134L8.13495 62.5102C8.06488 62.2823 8.04928 62.0391 8.08958 61.803C8.10833 61.7034 8.15922 61.6142 8.23324 61.551H8.27861C8.34023 61.5309 8.40601 61.5309 8.46763 61.551C8.58554 61.593 8.69202 61.6656 8.77763 61.7624C8.88959 61.8694 8.98414 61.9958 9.05738 62.1363C9.09962 62.2039 9.13751 62.2745 9.17079 62.3476V62.3964C9.17364 62.4207 9.17364 62.4453 9.17079 62.4695C9.17079 62.4695 9.17079 62.4695 9.17079 62.5183H9.55641C9.46087 62.2669 9.33639 62.0293 9.18591 61.8111C9.06861 61.6219 8.91465 61.4622 8.73455 61.3429C8.55445 61.2237 8.35249 61.1477 8.14252 61.1202C7.99066 61.118 7.84398 61.1796 7.7338 61.292C7.62363 61.4044 7.55867 61.5586 7.55276 61.7217C7.56093 61.9984 7.63094 62.2688 7.7569 62.5102Z" fill="#455A64"/>
<path d="M8.62643 71.5001C7.56034 74.7514 4.48305 79.0269 4.4528 81.6036C4.42362 82.2371 4.58509 82.8639 4.91332 83.391C5.24154 83.918 5.71904 84.3174 6.27499 84.5298C6.27499 84.5298 4.0067 86.066 4.36962 88.407C4.53596 89.6181 6.47913 90.3822 6.47913 90.3822C5.99059 90.7589 5.60799 91.273 5.37325 91.868C5.13852 92.463 5.06071 93.116 5.1484 93.7554C5.47352 95.3811 7.37131 95.9257 7.37131 95.9257C7.37131 95.9257 6.24475 98.0228 7.07645 99.5835C8.7701 102.745 22.1151 101.209 23.6576 95.6981C24.3759 93.1214 21.1322 93.6904 21.1322 93.6904C21.1322 93.6904 25.6159 91.6665 25.389 88.6996C25.1622 85.7328 20.9961 86.7407 20.9961 86.7407C20.9961 86.7407 25.321 84.7411 24.7766 81.693C24.2322 78.5148 20.24 80.2868 20.24 80.2868C20.24 80.2868 22.9922 77.7833 22.1 75.548C20.5878 71.8577 15.4766 77.3037 12.4674 76.8892L10.3352 71.874L8.62643 71.5001Z" fill="#F7A9A0"/>
<path d="M6.39595 76.3283C7.15205 73.1339 3.24304 69.7525 3.5606 66.5743C3.99158 62.2988 8.77765 65.8915 10.3654 71.8577L10.8342 76.7347L6.39595 76.3283Z" fill="#F7A9A0"/>
<path d="M6.41105 90.4229C6.36569 90.4229 6.36569 90.5123 6.41105 90.5204C11.5775 91.2295 16.8096 89.9293 21.1624 86.8545C21.3137 86.7407 21.3363 86.4806 21.1624 86.5944C18.1229 88.5371 10.751 90.3416 6.41105 90.4229Z" fill="#263238"/>
<path d="M20.4971 79.9454C16.2176 82.9041 11.4845 84.099 6.46401 84.5704C6.39597 84.5704 6.41109 84.6761 6.46401 84.6842C8.97424 85.1719 12.1498 84.5135 14.5769 83.7739C16.8445 83.1387 18.9173 81.8746 20.5878 80.108C20.6634 80.0348 20.5954 79.8804 20.4971 79.9454Z" fill="#263238"/>
</svg>
